<?xml version="1.0" encoding="utf-8"?>
<!-- Generator: Adobe Illustrator 25.1.0, SVG Export Plug-In . SVG Version: 6.00 Build 0)  -->
<svg version="1.1" id="Layer_1" xmlns="http://www.w3.org/2000/svg" xmlns:xlink="http://www.w3.org/1999/xlink" x="0px" y="0px"
	 viewBox="0 0 573.3 121.3" style="enable-background:new 0 0 573.3 121.3;" xml:space="preserve">
<style type="text/css">
	.st0{fill:#003DA6;}
	.st1{fill:#FFD200;}
	.st2{fill:#45ABE1;}
	.st3{fill-rule:evenodd;clip-rule:evenodd;fill:#003DA6;}
	.st4{fill:none;stroke:#003DA6;stroke-width:0.75;stroke-linecap:round;stroke-linejoin:round;stroke-miterlimit:10;}
</style>
<g>
	<g>
		<path class="st0" d="M477.7,100.1l-2.8-4.2c-0.1-0.2,0-0.4,0.2-0.4h1.6c0.1,0,0.2,0.1,0.2,0.1l1.8,2.6l1.8-2.6
			c0-0.1,0.1-0.1,0.2-0.1h1.6c0.2,0,0.3,0.2,0.2,0.4l-2.8,4.2v4c0,0.1-0.1,0.2-0.2,0.2h-1.5c-0.1,0-0.2-0.1-0.2-0.2V100.1z"/>
		<path class="st0" d="M483.4,95.7c0-0.1,0.1-0.2,0.2-0.2h5.2c0.1,0,0.2,0.1,0.2,0.2v1.4c0,0.1-0.1,0.2-0.2,0.2h-3.5v1.6h2.9
			c0.1,0,0.2,0.1,0.2,0.2v1.4c0,0.1-0.1,0.2-0.2,0.2h-2.9v1.7h3.5c0.1,0,0.2,0.1,0.2,0.2v1.4c0,0.1-0.1,0.2-0.2,0.2h-5.2
			c-0.1,0-0.2-0.1-0.2-0.2V95.7z"/>
		<path class="st0" d="M489.9,104l4-8.5c0-0.1,0.1-0.1,0.2-0.1h0.1c0.1,0,0.2,0.1,0.2,0.1l4,8.5c0.1,0.2,0,0.3-0.2,0.3h-1.4
			c-0.2,0-0.3-0.1-0.4-0.3l-0.5-1h-3.4l-0.5,1c-0.1,0.2-0.2,0.3-0.5,0.3h-1.4C489.9,104.3,489.8,104.2,489.9,104z M495.1,101.3
			l-1-2.1h0l-0.9,2.1H495.1z"/>
		<path class="st0" d="M499.3,95.7c0-0.1,0.1-0.2,0.2-0.2h3.8c1.5,0,2.8,1.2,2.8,2.7c0,1.2-0.8,2.1-1.9,2.5l1.7,3.2
			c0.1,0.2,0,0.4-0.2,0.4H504c-0.1,0-0.2-0.1-0.2-0.1l-1.7-3.4h-0.9v3.2c0,0.1-0.1,0.2-0.2,0.2h-1.5c-0.1,0-0.2-0.1-0.2-0.2V95.7z
			 M503.2,99.3c0.5,0,1-0.5,1-1c0-0.5-0.4-1-1-1h-1.9v2H503.2z"/>
		<path class="st0" d="M507.2,103.1l0.6-1c0.1-0.2,0.3-0.1,0.4-0.1c0.1,0,1,0.7,1.8,0.7c0.5,0,0.9-0.3,0.9-0.8
			c0-0.5-0.4-0.9-1.3-1.3c-1.1-0.4-2.5-1.3-2.5-2.8c0-1.3,1-2.5,2.9-2.5c1.3,0,2.3,0.7,2.7,0.9c0.2,0.1,0.1,0.3,0.1,0.4l-0.6,1
			c-0.1,0.1-0.3,0.3-0.4,0.2c-0.1-0.1-1-0.8-1.8-0.8c-0.5,0-0.8,0.3-0.8,0.6c0,0.5,0.4,0.8,1.4,1.2c1,0.4,2.6,1.2,2.6,2.9
			c0,1.3-1.1,2.6-3,2.6c-1.6,0-2.6-0.7-2.8-1C507.1,103.4,507.1,103.3,507.2,103.1z"/>
	</g>
	<path class="st1" d="M564.8,56.4h-33.4c-0.4,0-0.7-0.3-0.7-0.7c0-0.4,0.3-0.7,0.7-0.7h33.4c0.4,0,0.7,0.3,0.7,0.7
		C565.5,56.1,565.2,56.4,564.8,56.4z"/>
	<path class="st1" d="M564.8,73.2h-33.4c-0.4,0-0.7-0.3-0.7-0.7c0-0.4,0.3-0.7,0.7-0.7h33.4c0.4,0,0.7,0.3,0.7,0.7
		C565.5,72.9,565.2,73.2,564.8,73.2z"/>
	<g>
		<path d="M538,67.8c0.7-0.9,2.1-2.6,2.8-3.6c0.3-0.4,0.6-0.8,0.6-1.2c0-0.5-0.4-1-1.1-1c-0.5,0-1,0.4-1.2,0.6
			c-0.1,0.1-0.2,0.1-0.3,0l-0.5-0.5c-0.1-0.1-0.1-0.2,0-0.3c0,0,0.8-1.1,2.1-1.1c1.5,0,2.4,1,2.4,2.2c0,0.7-0.3,1.1-0.7,1.8
			c-0.5,0.7-1.3,1.7-1.9,2.4h2.3c0.1,0,0.2,0.1,0.2,0.2v0.7c0,0.1-0.1,0.2-0.2,0.2h-4.3c-0.1,0-0.2-0.1-0.2-0.2V67.8z"/>
		<path d="M543.8,64.6c0-2.4,1-3.8,2.7-3.8c1.7,0,2.7,1.4,2.7,3.8c0,2.4-1,3.8-2.7,3.8C544.8,68.4,543.8,67,543.8,64.6z M547.8,64.6
			c0-1.6-0.5-2.5-1.3-2.5c-0.8,0-1.3,0.9-1.3,2.5c0,1.6,0.5,2.5,1.3,2.5C547.4,67.1,547.8,66.2,547.8,64.6z"/>
		<path d="M550,67.8c0.7-0.9,2.1-2.6,2.8-3.6c0.3-0.4,0.6-0.8,0.6-1.2c0-0.5-0.4-1-1.1-1c-0.5,0-1,0.4-1.2,0.6
			c-0.1,0.1-0.2,0.1-0.3,0l-0.5-0.5c-0.1-0.1-0.1-0.2,0-0.3c0,0,0.8-1.1,2.1-1.1c1.5,0,2.4,1,2.4,2.2c0,0.7-0.3,1.1-0.7,1.8
			c-0.5,0.7-1.3,1.7-1.9,2.4h2.3c0.1,0,0.2,0.1,0.2,0.2v0.7c0,0.1-0.1,0.2-0.2,0.2h-4.3c-0.1,0-0.2-0.1-0.2-0.2V67.8z"/>
		<path d="M556.8,62.9l-1,0.2c-0.1,0-0.2,0-0.2-0.1l-0.1-0.5c0-0.1,0-0.2,0.1-0.2l1.6-1.3h0.8c0.1,0,0.2,0.1,0.2,0.2v7
			c0,0.1-0.1,0.2-0.2,0.2H557c-0.1,0-0.2-0.1-0.2-0.2V62.9z"/>
	</g>
	<path class="st1" d="M457.8,56.3h-33.4c-0.4,0-0.7-0.3-0.7-0.7c0-0.4,0.3-0.7,0.7-0.7h33.4c0.4,0,0.7,0.3,0.7,0.7
		C458.5,56,458.2,56.3,457.8,56.3z"/>
	<path class="st1" d="M457.8,73.1h-33.4c-0.4,0-0.7-0.3-0.7-0.7c0-0.4,0.3-0.7,0.7-0.7h33.4c0.4,0,0.7,0.3,0.7,0.7
		C458.5,72.8,458.2,73.1,457.8,73.1z"/>
	<g>
		<path d="M431.3,62.8l-1,0.2c-0.1,0-0.2,0-0.2-0.1l-0.1-0.5c0-0.1,0-0.2,0.1-0.2l1.6-1.3h0.8c0.1,0,0.2,0.1,0.2,0.2v7
			c0,0.1-0.1,0.2-0.2,0.2h-0.9c-0.1,0-0.2-0.1-0.2-0.2V62.8z"/>
		<path d="M434.9,67.3c0.5-0.2,2-0.9,2.4-2.1c-0.2,0.1-0.7,0.3-1.2,0.3c-1.1,0-2.2-0.8-2.2-2.3c0-1.4,1.1-2.5,2.4-2.5
			c1.7,0,2.6,1.4,2.6,3c0,3.2-2.7,4.4-3.6,4.7c-0.2,0-0.3,0-0.3-0.2l-0.2-0.6C434.7,67.4,434.7,67.3,434.9,67.3z M437.6,63.5
			c0-0.7-0.4-1.6-1.3-1.6c-0.7,0-1.2,0.6-1.2,1.3c0,0.7,0.6,1.3,1.2,1.3C437.1,64.4,437.5,63.9,437.6,63.5z"/>
		<path d="M440.8,67.3c0.5-0.2,2-0.9,2.4-2.1c-0.2,0.1-0.7,0.3-1.2,0.3c-1.1,0-2.2-0.8-2.2-2.3c0-1.4,1.1-2.5,2.4-2.5
			c1.7,0,2.6,1.4,2.6,3c0,3.2-2.7,4.4-3.6,4.7c-0.2,0-0.3,0-0.3-0.2l-0.2-0.6C440.6,67.4,440.6,67.3,440.8,67.3z M443.5,63.5
			c0-0.7-0.4-1.6-1.3-1.6c-0.7,0-1.2,0.6-1.2,1.3c0,0.7,0.6,1.3,1.2,1.3C442.9,64.4,443.3,63.9,443.5,63.5z"/>
		<path d="M449.2,60.6c0.2,0,0.3,0,0.3,0.2l0.2,0.6c0.1,0.1,0,0.2-0.2,0.3c-0.5,0.2-2,0.9-2.4,2.1c0.2-0.1,0.7-0.3,1.2-0.3
			c1.1,0,2.2,0.8,2.2,2.3c0,1.4-1.1,2.5-2.4,2.5c-1.7,0-2.6-1.4-2.6-3C445.6,62.1,448.3,60.9,449.2,60.6z M449.4,65.8
			c0-0.7-0.6-1.3-1.2-1.3c-0.7,0-1.1,0.6-1.3,0.9c0,0.7,0.4,1.6,1.3,1.6C448.9,67.1,449.4,66.5,449.4,65.8z"/>
	</g>
	<g>
		<path class="st0" d="M455.3,31.7c0.8-1,1.7-1.5,2.8-1.6c0.1,0,0.3,0.1,0.3,0.2l0.2,1.4c0,0.1-0.1,0.2-0.2,0.2
			c-0.6,0.1-1.2,0.4-1.6,0.9c-0.9,1.1-0.6,2.7,0.5,3.6c1.1,0.9,2.7,0.8,3.6-0.3c0.4-0.5,0.6-1.1,0.6-1.7c0-0.1,0.1-0.2,0.2-0.2
			l1.4-0.1c0.1,0,0.2,0.1,0.3,0.2c0.1,1.2-0.3,2.3-1,3.2c-1.6,2-4.4,2.3-6.4,0.7S453.7,33.7,455.3,31.7z"/>
		<path class="st0" d="M459.6,27.5c-0.1-0.1-0.1-0.2,0-0.3l4-3.4c0.1-0.1,0.3-0.1,0.3,0l0.9,1c0.1,0.1,0.1,0.2,0,0.3l-2.7,2.3l1,1.2
			l2.2-1.9c0.1-0.1,0.3-0.1,0.3,0l0.9,1c0.1,0.1,0.1,0.3,0,0.3l-2.2,1.9l1.1,1.3l2.7-2.3c0.1-0.1,0.3-0.1,0.3,0l0.9,1
			c0.1,0.1,0.1,0.2,0,0.3l-4,3.4c-0.1,0.1-0.3,0.1-0.3,0L459.6,27.5z"/>
		<path class="st0" d="M466.5,22.1c-0.1-0.1,0-0.3,0.1-0.3l1.3-0.8c0.1-0.1,0.3,0,0.3,0.1l3.5,5.8l2.6-1.6c0.1-0.1,0.3,0,0.3,0.1
			l0.7,1.2c0.1,0.1,0,0.3-0.1,0.3l-4.1,2.5c-0.1,0.1-0.3,0-0.3-0.1L466.5,22.1z"/>
		<path class="st0" d="M473.1,18.4c0-0.1,0-0.3,0.1-0.3l4.9-2c0.1-0.1,0.3,0,0.3,0.1l0.5,1.3c0,0.1,0,0.3-0.1,0.3l-3.2,1.3l0.6,1.5
			l2.7-1.1c0.1,0,0.3,0,0.3,0.1l0.5,1.3c0.1,0.1,0,0.3-0.1,0.3l-2.7,1.1l0.6,1.6l3.2-1.3c0.1-0.1,0.3,0,0.3,0.1l0.5,1.3
			c0,0.1,0,0.3-0.1,0.3l-4.9,2c-0.1,0.1-0.3,0-0.3-0.1L473.1,18.4z"/>
		<path class="st0" d="M481.5,15.3c0-0.1,0.1-0.3,0.2-0.3l2.9-0.6c1.5-0.3,2.9,0.5,3.1,1.8c0.2,1-0.5,1.8-1,2.2
			c0.7,0.1,1.8,0.5,2.1,1.7c0.3,1.4-0.7,2.6-2.2,2.9l-3.1,0.6c-0.1,0-0.3-0.1-0.3-0.2L481.5,15.3z M485,18c0.5-0.1,0.8-0.6,0.7-1.1
			c-0.1-0.5-0.6-0.8-1-0.7l-1,0.2l0.4,1.7L485,18z M485.9,21.4c0.5-0.1,0.8-0.6,0.7-1.1c-0.1-0.5-0.7-0.8-1.2-0.7l-1,0.2l0.4,1.8
			L485.9,21.4z"/>
		<path class="st0" d="M490.7,13.8c0-0.1,0.1-0.2,0.2-0.2l3.8-0.1c1.5,0,2.8,1.2,2.8,2.7c0,1.2-0.7,2.1-1.8,2.6l1.8,3.2
			c0.1,0.2,0,0.4-0.2,0.4l-1.7,0c-0.1,0-0.2-0.1-0.2-0.1l-1.7-3.3l-0.9,0l0.1,3.2c0,0.1-0.1,0.2-0.2,0.2l-1.5,0
			c-0.1,0-0.2-0.1-0.2-0.2L490.7,13.8z M494.6,17.3c0.5,0,1-0.5,0.9-1c0-0.5-0.5-1-1-0.9l-1.9,0l0,2L494.6,17.3z"/>
		<path class="st0" d="M498.3,22l5.5-7.6c0.1-0.1,0.2-0.1,0.2-0.1l0.1,0c0.1,0,0.2,0.1,0.2,0.2l2.2,9.1c0,0.2-0.1,0.3-0.3,0.3
			l-1.4-0.3c-0.2,0-0.3-0.1-0.4-0.4l-0.3-1.1l-3.4-0.7l-0.6,0.9c-0.1,0.1-0.3,0.3-0.5,0.2l-1.4-0.3C498.2,22.4,498.2,22.2,498.3,22z
			 M503.9,20.4l-0.5-2.2l0,0L502,20L503.9,20.4z"/>
		<path class="st0" d="M510.3,18.1l-1.7-0.6c-0.1,0-0.2-0.2-0.1-0.3l0.5-1.3c0-0.1,0.2-0.2,0.3-0.1l5.3,2c0.1,0,0.2,0.2,0.1,0.3
			l-0.5,1.3c0,0.1-0.2,0.2-0.3,0.1l-1.7-0.6l-2.4,6.3c0,0.1-0.2,0.2-0.3,0.1l-1.4-0.5c-0.1,0-0.2-0.2-0.1-0.3L510.3,18.1z"/>
		<path class="st0" d="M516.3,18.9c0.1-0.1,0.2-0.2,0.3-0.1l1.3,0.7c0.1,0.1,0.2,0.2,0.1,0.3l-3.8,7.4c-0.1,0.1-0.2,0.2-0.3,0.1
			l-1.3-0.7c-0.1-0.1-0.2-0.2-0.1-0.3L516.3,18.9z"/>
		<path class="st0" d="M521.1,21.3c0.1-0.1,0.2-0.1,0.3,0l0.3,0.2l1.1,6.9l0,0l2.7-3.6c0.1-0.1,0.2-0.1,0.3,0l1.2,0.9
			c0.1,0.1,0.1,0.2,0,0.3l-5.1,6.8c-0.1,0.1-0.2,0.1-0.3,0l-0.2-0.1c0,0-0.1-0.1-0.1-0.1l-1-7l0,0l-2.8,3.8c-0.1,0.1-0.2,0.1-0.3,0
			l-1.2-0.9c-0.1-0.1-0.1-0.2,0-0.3L521.1,21.3z"/>
		<path class="st0" d="M532.9,31.5c0.7,0.8,1.1,2,1.1,3.1c0,0.1-0.1,0.3-0.2,0.2l-1.5-0.1c-0.1,0-0.2-0.1-0.2-0.3
			c0-0.7-0.2-1.2-0.6-1.7c-0.9-1-2.5-1.1-3.6-0.2c-1,0.9-1.2,2.5-0.3,3.5c0.2,0.3,0.5,0.5,0.9,0.7l0.6-0.5l-0.5-0.6
			c-0.1-0.1-0.1-0.2,0-0.3l1-0.8c0.1-0.1,0.2-0.1,0.3,0l1.7,1.9c0.1,0.1,0.1,0.2,0,0.3l-2.6,2.2c0,0-0.2,0.1-0.2,0.1
			c0,0-1.5-0.5-2.7-1.8c-1.6-1.9-1.4-4.7,0.5-6.4C528.4,29.3,531.2,29.6,532.9,31.5z"/>
	</g>
	<circle cx="469.6" cy="99.8" r="1.6"/>
	<circle cx="518.8" cy="99.8" r="1.6"/>
	<g>
		<path class="st2" d="M464.2,83.4c3.7-4.9,13.3-17.9,17.1-23.7c0.8-1.3,1.7-3.1,1.7-4.9c0-2.5-2.1-4.6-5.7-4.6
			c-2.6,0-5,1.9-6.3,3.2c-0.5,0.5-1.3,0.5-1.8,0l-3.9-4c-0.5-0.4-0.5-1.2-0.1-1.7c0,0,5.2-6.3,12.9-6.3c9.2,0,14.7,5.9,14.7,13
			c0,3.4-1,5.4-2.5,8.4c-2.1,3.7-7.4,10.6-10.4,14.9h11.4c0.6,0,1.2,0.6,1.2,1.2v5.8c0,0.6-0.6,1.2-1.2,1.2h-25.8
			c-0.7,0-1.2-0.6-1.2-1.2V83.4z"/>
		<path class="st2" d="M495.9,79l4.1-4c0.4-0.4,1-0.5,1.5-0.2c0,0,4.6,3.1,7.7,3.1c3.5,0,6.1-2.6,6.1-6.1c0-3.5-2.5-6.3-6.7-6.3
			h-9.9c-1.3,0-2-1.2-2-2.3v-20c0-0.6,0.5-1.2,1.2-1.2h20.8c0.7,0,1.2,0.6,1.2,1.2v5.7c0,0.6-0.5,1.2-1.2,1.2h-13.3v6.9h4.6
			c8.9,0,14.7,6.3,14.7,14.7c0,8.1-6.9,14.8-16,14.8c-6.7,0-11.2-3.4-12.8-5.4C495.1,80.2,495.1,79.8,495.9,79z"/>
	</g>
</g>
<g>
	<g>
		<path class="st0" d="M20.9,41.5h-4.5v-24H8.2v-4h21v4h-8.3V41.5z"/>
		<path class="st0" d="M56.7,41.5h-4.6V28.9H39.2v12.6h-4.6v-28h4.6V25h12.9V13.6h4.6V41.5z"/>
		<path class="st0" d="M81,41.5H65.2v-28h15.8v3.9H69.8V25h10.5v3.9H69.8v8.8H81V41.5z"/>
		<path class="st0" d="M104.1,41.5h-4.5v-28h15.8v3.9h-11.3v8.8h10.5v3.9h-10.5V41.5z"/>
		<path class="st0" d="M146.4,27.5c0,4.5-1.2,8-3.4,10.6c-2.3,2.6-5.5,3.8-9.6,3.8s-7.5-1.3-9.8-3.8s-3.4-6.1-3.4-10.7
			c0-4.6,1.2-8.1,3.4-10.6c2.3-2.4,5.6-3.6,9.8-3.6s7.4,1.3,9.6,3.8C145.2,19.3,146.4,23,146.4,27.5z M125.1,27.5c0,3.4,0.6,6,2,7.8
			c1.4,1.8,3.4,2.7,6.2,2.7c2.7,0,4.7-0.9,6.1-2.7c1.4-1.7,2-4.4,2-7.8s-0.6-6-2-7.8c-1.4-1.8-3.4-2.7-6.1-2.7
			c-2.8,0-4.8,0.9-6.2,2.7C125.7,21.5,125.1,24.1,125.1,27.5z"/>
		<path class="st0" d="M175.5,13.6v18.1c0,2-0.4,3.9-1.3,5.5c-0.9,1.5-2.1,2.8-3.9,3.5c-1.7,0.9-3.6,1.3-6,1.3c-3.4,0-6.1-1-8-2.8
			c-1.9-1.8-2.9-4.4-2.9-7.6v-18h4.6v17.7c0,2.4,0.5,4,1.6,5.1c1.1,1.1,2.7,1.6,4.9,1.6c4.3,0,6.4-2.3,6.4-6.8V13.6H175.5z"/>
		<path class="st0" d="M207.1,41.5h-5.6l-13.8-22.3h-0.1l0.1,1.3c0.2,2.4,0.2,4.5,0.2,6.5v14.6h-4.2V13.6h5.6L203,35.7h0.1
			c0-0.3-0.1-1.4-0.1-3.2c-0.1-1.8-0.1-3.3-0.1-4.3V13.6h4.2V41.5L207.1,41.5z"/>
		<path class="st0" d="M238.4,27.3c0,4.6-1.3,8.1-3.9,10.6c-2.6,2.5-6.2,3.6-11,3.6h-7.8v-28h8.7c4.4,0,7.9,1.2,10.4,3.6
			C237.1,19.6,238.4,22.9,238.4,27.3z M233.5,27.4c0-6.6-3.1-10.1-9.4-10.1h-4v20.3h3.2C230.1,37.7,233.5,34.2,233.5,27.4z"/>
		<path class="st0" d="M262.8,41.5l-2.8-7.7h-10.7l-2.8,7.7h-4.8l10.6-28.1h4.9l10.5,28.1H262.8z M258.8,29.8l-2.6-7.6
			c-0.2-0.5-0.4-1.3-0.8-2.4c-0.3-1.1-0.5-1.9-0.8-2.4c-0.3,1.6-0.9,3.3-1.5,5.1l-2.6,7.3h8.1V29.8L258.8,29.8z"/>
		<path class="st0" d="M282.2,41.5h-4.6v-24h-8.1v-4h21v4h-8.3V41.5L282.2,41.5z"/>
		<path class="st0" d="M295.9,41.5v-28h4.6v28H295.9z"/>
		<path class="st0" d="M333.9,27.5c0,4.5-1.2,8-3.4,10.6c-2.3,2.6-5.5,3.8-9.6,3.8c-4.2,0-7.5-1.3-9.8-3.8
			c-2.3-2.5-3.4-6.1-3.4-10.7c0-4.6,1.2-8.1,3.4-10.6c2.3-2.5,5.6-3.6,9.8-3.6c4.2,0,7.4,1.3,9.6,3.8
			C332.7,19.5,333.9,23,333.9,27.5z M312.5,27.5c0,3.4,0.6,6,2,7.8c1.4,1.8,3.4,2.7,6.2,2.7c2.7,0,4.7-0.9,6.1-2.7
			c1.4-1.7,2-4.4,2-7.8s-0.6-6-2-7.8c-1.4-1.8-3.4-2.7-6.1-2.7c-2.8,0-4.8,0.9-6.2,2.7C313.2,21.5,312.5,24.1,312.5,27.5z"/>
		<path class="st0" d="M364.3,41.5h-5.6l-13.8-22.3h-0.1l0.1,1.3c0.2,2.4,0.2,4.5,0.2,6.5v14.6h-4.2V13.6h5.6l13.7,22.2h0.1
			c0-0.3-0.1-1.4-0.1-3.2c0-1.8-0.1-3.3-0.1-4.3V13.6h4.2V41.5z"/>
	</g>
	<g>
		<path class="st0" d="M17.5,68.1h-2.6V52H24v2.3h-6.4v5h6.1v2.3h-6.2V68.1z"/>
		<path class="st0" d="M41.9,60.1c0,2.6-0.6,4.6-1.9,6.1c-1.3,1.5-3.2,2.1-5.6,2.1c-2.5,0-4.3-0.8-5.6-2.1c-1.3-1.4-1.9-3.5-1.9-6.1
			c0-2.6,0.6-4.7,1.9-6.1c1.3-1.4,3.2-2.1,5.6-2.1c2.4,0,4.3,0.8,5.6,2.1C41.3,55.4,41.9,57.4,41.9,60.1z M29.6,60.1
			c0,2,0.4,3.5,1.2,4.5c0.8,1.1,2,1.5,3.5,1.5c1.6,0,2.8-0.5,3.5-1.5c0.8-1,1.2-2.6,1.2-4.5c0-1.9-0.4-3.4-1.2-4.5
			c-0.8-1.1-1.9-1.5-3.5-1.5c-1.6,0-2.8,0.5-3.5,1.5C30,56.5,29.6,58,29.6,60.1z"/>
		<path class="st0" d="M48.7,61.7v6.4H46V52h4.5c2,0,3.6,0.4,4.6,1.2c1,0.8,1.5,1.9,1.5,3.5c0,2-1.1,3.4-3.1,4.3l4.5,7.2h-2.9
			l-3.9-6.4L48.7,61.7L48.7,61.7z M48.7,59.5h1.8c1.2,0,2.1-0.2,2.7-0.6c0.5-0.4,0.9-1.2,0.9-2c0-0.9-0.3-1.6-0.9-1.9
			c-0.6-0.4-1.5-0.6-2.7-0.6h-1.8V59.5z"/>
		<path class="st0" d="M67.6,52h4.8c2.3,0,3.9,0.3,4.8,1c1,0.6,1.5,1.7,1.5,3.1c0,1-0.2,1.7-0.8,2.4c-0.5,0.6-1.2,1-2.1,1.2v0.1
			c1.2,0.2,1.9,0.6,2.5,1.3c0.5,0.6,0.8,1.5,0.8,2.6c0,1.5-0.5,2.6-1.5,3.4c-1,0.9-2.5,1.2-4.2,1.2h-5.8V52z M70.3,58.7h2.6
			c1.1,0,1.9-0.2,2.5-0.5c0.5-0.3,0.8-1,0.8-1.8c0-0.8-0.3-1.3-0.9-1.6c-0.5-0.3-1.4-0.5-2.6-0.5h-2.3v4.5H70.3z M70.3,60.8V66h2.8
			c1.1,0,1.9-0.2,2.5-0.6c0.5-0.4,0.9-1.1,0.9-2c0-0.9-0.3-1.5-0.9-1.8C75,61,74.2,60.8,73,60.8H70.3z"/>
		<path class="st0" d="M93.3,68.1l-1.6-4.5h-6.1l-1.6,4.5h-2.8l6-16.2H90l6,16.2H93.3z M91,61.4L89.5,57c-0.1-0.3-0.2-0.8-0.4-1.4
			c-0.2-0.6-0.3-1.1-0.4-1.4c-0.2,0.9-0.5,1.9-0.9,3l-1.5,4.2H91z"/>
		<path class="st0" d="M101.5,61.7v6.4h-2.7V52h4.5c2,0,3.6,0.4,4.6,1.2c1,0.8,1.5,1.9,1.5,3.5c0,2-1.1,3.4-3.1,4.3l4.5,7.2h-3
			l-3.9-6.4L101.5,61.7L101.5,61.7z M101.5,59.5h1.8c1.2,0,2.1-0.2,2.7-0.6c0.5-0.4,0.9-1.2,0.9-2c0-0.9-0.3-1.6-0.9-1.9
			c-0.6-0.4-1.5-0.6-2.7-0.6h-1.7L101.5,59.5L101.5,59.5z"/>
		<path class="st0" d="M127.4,68.1h-3.2l-7.9-12.9h-0.1V56c0.1,1.4,0.1,2.6,0.1,3.8v8.4h-2.4V52h3.2l7.9,12.8h0.1
			c0-0.2,0-0.8-0.1-1.8c0-1.1-0.1-1.9-0.1-2.5V52h2.5V68.1z"/>
		<path class="st0" d="M141.5,68.1h-9.1V52h9.1v2.3h-6.4v4.4h6.1v2.3h-6.1v5h6.4V68.1z"/>
		<path class="st0" d="M154.9,63.7c0,1.4-0.5,2.6-1.6,3.3c-1.1,0.9-2.5,1.2-4.3,1.2c-1.8,0-3.3-0.3-4.5-0.9v-2.5
			c0.8,0.3,1.5,0.6,2.4,0.9s1.6,0.3,2.4,0.3c1.1,0,1.8-0.2,2.4-0.6c0.5-0.4,0.8-1,0.8-1.6c0-0.6-0.2-1.1-0.6-1.5
			c-0.4-0.4-1.4-1-2.8-1.5c-1.5-0.6-2.5-1.3-3.1-2c-0.6-0.8-0.9-1.7-0.9-2.8c0-1.4,0.4-2.4,1.4-3.2c1-0.8,2.3-1.2,3.9-1.2
			c1.5,0,3.1,0.3,4.6,1l-0.9,2.1c-1.4-0.6-2.7-0.9-3.9-0.9c-0.9,0-1.5,0.2-1.9,0.5c-0.4,0.3-0.6,0.9-0.6,1.5c0,0.4,0.1,0.8,0.2,1.1
			c0.2,0.3,0.4,0.5,0.9,0.9c0.4,0.2,1.2,0.6,2.1,1.1c1.2,0.5,2,1,2.6,1.4c0.5,0.4,1,0.9,1.2,1.4C154.8,62.4,154.9,63.1,154.9,63.7z"
			/>
		<path class="st0" d="M157.5,63.1v-2.1h9.4v2.1H157.5z"/>
		<path class="st0" d="M168.6,72.6c-0.8,0-1.3-0.1-1.8-0.3V70c0.6,0.1,1.2,0.2,1.6,0.2c1.4,0,2.1-1,2.1-2.8V52h2.7v15.5
			c0,1.6-0.4,2.9-1.2,3.8S170.1,72.6,168.6,72.6z"/>
		<path class="st0" d="M187.2,68.1h-9.1V52h9.1v2.3h-6.4v4.4h6.1v2.3h-6.1v5h6.4V68.1z"/>
		<path class="st0" d="M206.2,68.1h-2.9l-2.7-9.6c-0.1-0.4-0.2-1.1-0.4-1.8c-0.2-0.8-0.3-1.3-0.3-1.6c-0.1,0.4-0.2,1.1-0.3,1.8
			c-0.2,0.8-0.3,1.3-0.4,1.7l-2.7,9.5h-2.9l-2-8l-2.1-8h2.7l2.3,9.4c0.3,1.5,0.6,2.8,0.8,4c0.1-0.6,0.2-1.3,0.3-2.1
			c0.2-0.8,0.3-1.4,0.4-1.8l2.6-9.4h2.6l2.7,9.4c0.2,0.9,0.5,2.1,0.9,4c0.1-1.1,0.3-2.4,0.8-4l2.3-9.3h2.7L206.2,68.1z"/>
		<path class="st0" d="M213.4,68.1V52h2.7v16.1H213.4z"/>
		<path class="st0" d="M230.2,63.7c0,1.4-0.5,2.6-1.6,3.3c-1.1,0.9-2.5,1.2-4.3,1.2c-1.8,0-3.3-0.3-4.5-0.9v-2.5
			c0.8,0.3,1.5,0.6,2.4,0.9c0.9,0.2,1.6,0.3,2.4,0.3c1.1,0,1.8-0.2,2.4-0.6c0.5-0.4,0.8-1,0.8-1.6c0-0.6-0.2-1.1-0.6-1.5
			c-0.4-0.4-1.4-1-2.8-1.5c-1.5-0.6-2.5-1.3-3.1-2c-0.6-0.8-0.9-1.7-0.9-2.8c0-1.4,0.4-2.4,1.4-3.2c1-0.8,2.3-1.2,3.9-1.2
			c1.5,0,3.1,0.3,4.6,1l-0.9,2.1c-1.4-0.6-2.7-0.9-3.9-0.9c-0.9,0-1.5,0.2-1.9,0.5c-0.4,0.3-0.6,0.9-0.6,1.5c0,0.4,0.1,0.8,0.2,1.1
			c0.2,0.3,0.4,0.5,0.9,0.9c0.4,0.2,1.2,0.6,2.1,1.1c1.2,0.5,2,1,2.6,1.4c0.5,0.4,1,0.9,1.2,1.4C230.1,62.4,230.2,63.1,230.2,63.7z"
			/>
		<path class="st0" d="M246.7,68.1H244v-7.3h-7.4v7.3h-2.6V52h2.7v6.6h7.4V52h2.7L246.7,68.1L246.7,68.1z"/>
		<path class="st0" d="M271,68.1h-2.7v-7.3h-7.4v7.3h-2.7V52h2.7v6.6h7.4V52h2.7V68.1z"/>
		<path class="st0" d="M290.1,60.1c0,2.6-0.6,4.6-1.9,6.1c-1.3,1.5-3.2,2.1-5.6,2.1c-2.5,0-4.3-0.8-5.6-2.1
			c-1.3-1.4-1.9-3.5-1.9-6.1c0-2.6,0.6-4.7,1.9-6.1c1.3-1.4,3.2-2.1,5.6-2.1c2.4,0,4.3,0.8,5.6,2.1
			C289.5,55.4,290.1,57.4,290.1,60.1z M277.9,60.1c0,2,0.4,3.5,1.2,4.5c0.8,1.1,2,1.5,3.5,1.5c1.6,0,2.8-0.5,3.5-1.5
			c0.8-1,1.2-2.6,1.2-4.5c0-1.9-0.4-3.4-1.2-4.5c-0.8-1.1-1.9-1.5-3.5-1.5c-1.6,0-2.8,0.5-3.5,1.5C278.2,56.5,277.9,58,277.9,60.1z"
			/>
		<path class="st0" d="M303.6,63.7c0,1.4-0.5,2.6-1.6,3.3c-1.1,0.9-2.5,1.2-4.3,1.2s-3.3-0.3-4.5-0.9v-2.5c0.8,0.3,1.5,0.6,2.4,0.9
			c0.9,0.2,1.6,0.3,2.4,0.3c1.1,0,1.8-0.2,2.4-0.6c0.5-0.4,0.8-1,0.8-1.6c0-0.6-0.2-1.1-0.6-1.5c-0.4-0.4-1.4-1-2.8-1.5
			c-1.5-0.6-2.5-1.3-3.1-2c-0.6-0.8-0.9-1.7-0.9-2.8c0-1.4,0.4-2.4,1.4-3.2c1-0.8,2.3-1.2,3.9-1.2c1.5,0,3.1,0.3,4.6,1l-0.9,2.1
			c-1.4-0.6-2.7-0.9-3.9-0.9c-0.9,0-1.5,0.2-1.9,0.5c-0.4,0.3-0.6,0.9-0.6,1.5c0,0.4,0.1,0.8,0.2,1.1c0.2,0.3,0.4,0.5,0.9,0.9
			c0.4,0.2,1.2,0.6,2.1,1.1c1.2,0.5,2,1,2.6,1.4c0.5,0.4,1,0.9,1.2,1.4C303.4,62.4,303.6,63.1,303.6,63.7z"/>
		<path class="st0" d="M318.1,56.9c0,1.7-0.5,3-1.6,3.9c-1.1,0.9-2.7,1.4-4.7,1.4h-1.7v6h-2.7V52h4.6c2,0,3.5,0.4,4.5,1.3
			C317.6,54.1,318.1,55.2,318.1,56.9z M310.1,59.9h1.4c1.4,0,2.4-0.2,3-0.8c0.6-0.4,1-1.2,1-2.3c0-1-0.3-1.6-0.9-2
			c-0.5-0.4-1.5-0.6-2.7-0.6h-1.8V59.9L310.1,59.9z"/>
		<path class="st0" d="M322,68.1V52h2.7v16.1H322z"/>
		<path class="st0" d="M335.1,68.1h-2.7V54.3h-4.7V52h12.1v2.3h-4.7V68.1z"/>
		<path class="st0" d="M352.9,68.1l-1.6-4.5h-6.1l-1.6,4.5h-2.8l6-16.2h2.9l6,16.2H352.9z M350.7,61.4l-1.5-4.4
			c-0.1-0.3-0.2-0.8-0.4-1.4c-0.2-0.6-0.3-1.1-0.4-1.4c-0.2,0.9-0.5,1.9-0.9,3l-1.5,4.2H350.7z"/>
		<path class="st0" d="M358.6,68.1V52h2.7v13.8h6.9v2.3H358.6z"/>
	</g>
	<g>
		<g>
			<path class="st0" d="M169.7,93.1v3.6c0,3,0.1,3.1,0.9,3.1h1v0.8h-6v-0.8h1c0.3,0,0.3-0.1,0.3-0.4v-9.6c0-3-0.1-3.1-0.9-3.1h-1V86
				h6v0.8h-1c-0.3,0-0.3,0.1-0.3,0.4v5.1h6.5v-2.4c0-3-0.1-3.1-0.9-3.1h-1V86h6v0.8h-1c-0.3,0-0.3,0.1-0.3,0.4v9.6
				c0,3,0.1,3.1,0.9,3.1h1v0.8h-6v-0.8h1c0.3,0,0.3-0.1,0.3-0.4v-6.4H169.7z"/>
			<path class="st0" d="M190.2,99.2c-1.2,1.1-2.8,1.8-4.5,1.8c-3.1,0-4.7-2.2-4.7-5.1c0-2.9,1.7-5.5,4.8-5.5c2.2,0,3.4,1.5,4.2,3.3
				l-6.6,1.7c0.1,2.2,0.9,4.3,3.4,4.3c1.1,0,2-0.4,2.9-1.1L190.2,99.2z M183.7,94.7l3.9-1.1c-0.3-0.9-1-2.5-2.1-2.5
				c-1.5,0-1.9,2.5-1.9,3.6L183.7,94.7z"/>
			<path class="st0" d="M197,94.4v-0.7c0-1.5,0-2.3-1.6-2.3c-0.5,0-1.1,0.2-1.6,0.5c0,1.3-0.6,2.3-1.6,2.3c-0.4,0-0.8-0.3-0.8-0.7
				c0-1.8,3.1-3,5.1-3c2.6,0,2.8,0.7,2.8,3.2v3.6c0,1.8,0.3,2.2,1.6,2.4l-0.9,1.4c-0.6,0-2.2-0.1-3-1.9c-0.9,0.8-2.4,1.9-3.7,1.9
				c-1.3,0-2.2-0.9-2.2-2.3c0-2.2,2.8-3.2,4.5-3.9L197,94.4z M197,95.2l-0.4,0.2c-1.3,0.5-2.8,1.4-2.8,2.8c0,0.7,0.4,1.2,1.1,1.2
				c0.8,0,1.6-0.5,2.1-1.1V95.2z"/>
			<path class="st0" d="M205.9,96.7c0,2.7,0.1,3.2,0.7,3.2h1v0.7h-5.4v-0.7h0.8c0.3,0,0.4,0,0.4-0.4v-9.8c0-3.6-0.2-4.2-0.8-4.2h-1
				v-0.7c1.4-0.1,2.8-0.3,4.2-0.5V96.7z"/>
			<path class="st0" d="M215.2,100.1c-0.9,0.5-2.1,0.9-3,0.9c-1.9,0-2.5-0.8-2.5-2.7v-6.9h-0.8c-0.2,0-0.4,0-0.4-0.3
				c0-0.2,0.4-0.5,3.2-2.9h0.5v2.5h2.3c0,0.7-0.2,0.7-0.5,0.7h-1.8v6.2c0,1.3,0.1,2.2,1.4,2.2c0.5,0,1-0.1,1.4-0.3L215.2,100.1z"/>
			<path class="st0" d="M219.9,92.1c1.2-0.9,2.4-1.7,3.6-1.7c1.8,0,2.8,1.1,2.8,3.2v3.1c0,2.7,0.1,3.2,0.7,3.2h0.9v0.7h-5.1v-0.7
				h0.6c0.3,0,0.4,0,0.4-0.4v-4.8c0-1.6,0-2.9-1.7-2.9c-0.8,0-1.6,0.4-2.3,1.1v3.8c0,2.7,0.1,3.2,0.7,3.2h0.8v0.7h-5.2v-0.7h0.8
				c0.3,0,0.4,0,0.4-0.4v-9.8c0-3.6-0.2-4.2-0.8-4.2h-1v-0.7c1.4-0.1,2.8-0.3,4.2-0.5V92.1z"/>
			<path class="st0" d="M241.3,88.4c-0.2,0-0.2-0.1-0.3-0.6c-0.2-0.7-1.8-1.4-3.3-1.4c-3.9,0-6.2,3.1-6.2,6.9c0,3.4,2,6.7,5.7,6.7
				c1.3,0,4-0.7,4.3-2.3c0-0.2,0.1-0.4,0.3-0.4c0.2,0,0.3,0.1,0.3,0.3c0,0.2-0.1,0.7-0.2,2.2c-1.6,0.8-3.7,1.2-5.5,1.2
				c-4.6,0-7.8-2.4-7.8-7.2c0-5.1,4.3-8.3,9.2-8.3c1.3,0,2.7,0.3,3.9,0.8C241.6,88.4,241.6,88.4,241.3,88.4z"/>
			<path class="st0" d="M248.8,94.4v-0.7c0-1.5,0-2.3-1.6-2.3c-0.5,0-1.1,0.2-1.6,0.5c0,1.3-0.6,2.3-1.6,2.3c-0.4,0-0.8-0.3-0.8-0.7
				c0-1.8,3.1-3,5.1-3c2.6,0,2.8,0.7,2.8,3.2v3.6c0,1.8,0.3,2.2,1.6,2.4L252,101c-0.6,0-2.2-0.1-3-1.9c-0.9,0.8-2.4,1.9-3.7,1.9
				c-1.3,0-2.2-0.9-2.2-2.3c0-2.2,2.8-3.2,4.5-3.9L248.8,94.4z M248.8,95.2l-0.4,0.2c-1.3,0.5-2.8,1.4-2.8,2.8
				c0,0.7,0.4,1.2,1.1,1.2c0.8,0,1.6-0.5,2.1-1.1V95.2z"/>
			<path class="st0" d="M257.8,92.5c1.2-1.2,1.8-2.1,3-2.1c0.4,0,0.8,0.2,1.1,0.5l-0.3,1.5c-0.1,0.4-0.1,0.6-0.3,0.6
				c-0.5,0-0.2-0.8-1.4-0.8c-0.9,0-1.5,0.5-2.1,1.1v3.4c0,2.7,0.1,3.2,0.7,3.2h1.2v0.7h-5.6v-0.7h0.8c0.3,0,0.4,0,0.4-0.4v-4.7
				c0-2.3,0-3.3-0.8-3.3h-1v-0.7c1.4-0.1,2.8-0.2,4.2-0.4V92.5z"/>
			<path class="st0" d="M271.7,99.2c-1.2,1.1-2.8,1.8-4.5,1.8c-3.1,0-4.7-2.2-4.7-5.1c0-2.9,1.7-5.5,4.8-5.5c2.2,0,3.4,1.5,4.2,3.3
				l-6.6,1.7c0.1,2.2,0.9,4.3,3.4,4.3c1.1,0,2-0.4,2.9-1.1L271.7,99.2z M265.2,94.7l3.9-1.1c-0.3-0.9-1-2.5-2.1-2.5
				c-1.5,0-1.9,2.5-1.9,3.6L265.2,94.7z"/>
		</g>
		<path class="st3" d="M158.2,90.8v13.8h-33c-4.7,0-8.5-3.8-8.5-8.5V82.3h33C154.4,82.3,158.2,86.1,158.2,90.8z M152.4,96.4
			c0,0.8-0.3,2.7-3.2,2.6c-4.1-0.2-4.9-4-4.9-6.1c0-2.2,0.7-5.5,4.2-5.5c3.6,0,3.6,1.6,3.6,2.9h1l0.1-3.3c0,0-2.1-1-4.8-1
			c-2.9,0-6.9,1.9-6.9,6.9c0,5.5,3.8,7.9,7.7,7.9c2.5,0,3.9-0.8,3.9-0.8s0.3-2.7,0.4-3.5L152.4,96.4z M134.1,86.8
			c1.9,0.1,1.8,1.2,1.8,1.5c0,0.3,0,7.9,0,7.9c0,1.6-0.5,4.6-3.2,5.8l0.3,0.9c0.3-0.1,0.6-0.2,0.9-0.3c3.1-1,4.9-4.1,4.8-7.2
			c0-1,0-6.9,0-7.1c0-0.3,0-1.3,1.6-1.5v-0.9l-6.1,0V86.8z M123.3,88.3c0-0.4,0-1.4-1.8-1.5v-0.9h6.6c0.2,0,1.5,0,2.2,0.4
			c0.9,0.6,1.3,1.5,1.3,2.4c-0.2,2.1-2.1,3-2.1,3l0,0c1.2,0,3.5,0.9,3.5,3.7c0,5.4-6,5.2-6,5.2h-5.6v-0.9c1.8-0.1,1.8-1.2,1.8-1.5
			C123.3,98.1,123.3,88.3,123.3,88.3z M126.1,91.6c0.1,0,0.3,0,0.3,0c2.8,0,2.6-2.5,2.6-2.5c-0.1-1.8-1.7-1.8-1.7-1.8h-1.2V91.6z
			 M130.2,96c-0.1-3.5-3.5-3.2-3.5-3.2h-0.6v6.1h0.9C128.3,98.9,130.2,98.1,130.2,96z"/>
	</g>
</g>
<line class="st4" x1="396.2" y1="4.5" x2="396.2" y2="113.9"/>
</svg>
