<?xml version="1.0" encoding="utf-8"?>
<!-- Generator: Adobe Illustrator 21.1.0, SVG Export Plug-In . SVG Version: 6.00 Build 0)  -->
<svg version="1.1" id="Layer_1" xmlns="http://www.w3.org/2000/svg" xmlns:xlink="http://www.w3.org/1999/xlink" x="0px" y="0px"
	 viewBox="0 0 336 56.8" style="enable-background:new 0 0 336 56.8;" xml:space="preserve">
<style type="text/css">
	.st0{fill:#00529B;}
</style>
<g>
	<path class="st0" d="M12.1,26.5H7.9V4.1H0.2V0.4h19.6v3.7h-7.7C12.1,4.1,12.1,26.5,12.1,26.5z"/>
	<path class="st0" d="M45.5,26.5h-4.3V14.7h-12v11.8h-4.3V0.4h4.3v10.7h12V0.4h4.3V26.5z"/>
	<path class="st0" d="M68.2,26.5H53.4V0.4h14.7V4H57.7v7.1h9.8v3.6h-9.8v8.2h10.5V26.5z"/>
	<path class="st0" d="M89.7,26.5h-4.2V0.4h14.7V4H89.7v8.2h9.8v3.6h-9.8V26.5z"/>
	<path class="st0" d="M129.2,13.4c0,4.2-1.1,7.5-3.2,9.9c-2.1,2.4-5.1,3.5-9,3.5s-7-1.2-9.1-3.5s-3.2-5.7-3.2-10s1.1-7.6,3.2-9.9
		C110,1.2,113.1,0,117,0s6.9,1.2,9,3.5C128.1,5.8,129.2,9.2,129.2,13.4z M109.3,13.4c0,3.2,0.6,5.6,1.9,7.3s3.2,2.5,5.8,2.5
		c2.5,0,4.4-0.8,5.7-2.5c1.3-1.6,1.9-4.1,1.9-7.3s-0.6-5.6-1.9-7.3s-3.2-2.5-5.7-2.5c-2.6,0-4.5,0.8-5.8,2.5S109.3,10.2,109.3,13.4z
		"/>
	<path class="st0" d="M156.3,0.4v16.9c0,1.9-0.4,3.6-1.2,5.1c-0.8,1.4-2,2.6-3.6,3.3c-1.6,0.8-3.4,1.2-5.6,1.2
		c-3.2,0-5.7-0.9-7.5-2.6s-2.7-4.1-2.7-7.1V0.4h4.3v16.5c0,2.2,0.5,3.7,1.5,4.8c1,1,2.5,1.5,4.6,1.5c4,0,6-2.1,6-6.3V0.4H156.3z"/>
	<path class="st0" d="M185.8,26.5h-5.2L167.7,5.7h-0.1l0.1,1.2c0.2,2.2,0.2,4.2,0.2,6.1v13.6H164V0.4h5.2L182,21.1h0.1
		c0-0.3-0.1-1.3-0.1-3c-0.1-1.7-0.1-3.1-0.1-4V0.4h3.9L185.8,26.5L185.8,26.5z"/>
	<path class="st0" d="M215,13.2c0,4.3-1.2,7.6-3.6,9.9c-2.4,2.3-5.8,3.4-10.3,3.4h-7.3V0.4h8.1c4.1,0,7.4,1.1,9.7,3.4
		C213.8,6,215,9.1,215,13.2z M210.5,13.3c0-6.2-2.9-9.4-8.8-9.4H198v18.9h3C207.3,22.9,210.5,19.7,210.5,13.3z"/>
	<path class="st0" d="M237.8,26.5l-2.6-7.2h-10l-2.6,7.2h-4.5L228,0.3h4.6l9.8,26.2H237.8z M234.1,15.6l-2.4-7.1
		c-0.2-0.5-0.4-1.2-0.7-2.2s-0.5-1.8-0.7-2.2c-0.3,1.5-0.8,3.1-1.4,4.8l-2.4,6.8h7.6V15.6z"/>
	<path class="st0" d="M255.9,26.5h-4.3V4.1H244V0.4h19.6v3.7h-7.7L255.9,26.5L255.9,26.5z"/>
	<path class="st0" d="M268.7,26.5V0.4h4.3v26.1H268.7z"/>
	<path class="st0" d="M304.1,13.4c0,4.2-1.1,7.5-3.2,9.9s-5.1,3.5-9,3.5s-7-1.2-9.1-3.5s-3.2-5.7-3.2-10s1.1-7.6,3.2-9.9
		S288,0,291.9,0s6.9,1.2,9,3.5C303,5.9,304.1,9.2,304.1,13.4z M284.2,13.4c0,3.2,0.6,5.6,1.9,7.3s3.2,2.5,5.8,2.5
		c2.5,0,4.4-0.8,5.7-2.5c1.3-1.6,1.9-4.1,1.9-7.3s-0.6-5.6-1.9-7.3s-3.2-2.5-5.7-2.5c-2.6,0-4.5,0.8-5.8,2.5
		C284.8,7.8,284.2,10.2,284.2,13.4z"/>
	<path class="st0" d="M332.5,26.5h-5.2L314.4,5.7h-0.1l0.1,1.2c0.2,2.2,0.2,4.2,0.2,6.1v13.6h-3.9V0.4h5.2l12.8,20.7h0.1
		c0-0.3-0.1-1.3-0.1-3s-0.1-3.1-0.1-4V0.4h3.9V26.5z"/>
</g>
<g>
	<path class="st0" d="M8.9,51.3H6.5v-15H15v2.1H9v4.7h5.7v2.1H8.9V51.3z"/>
	<path class="st0" d="M31.7,43.8c0,2.4-0.6,4.3-1.8,5.7c-1.2,1.4-3,2-5.2,2c-2.3,0-4-0.7-5.2-2s-1.8-3.3-1.8-5.7s0.6-4.4,1.8-5.7
		c1.2-1.3,3-2,5.2-2s4,0.7,5.2,2C31.1,39.4,31.7,41.3,31.7,43.8z M20.2,43.8c0,1.9,0.4,3.3,1.1,4.2c0.7,1,1.9,1.4,3.3,1.4
		c1.5,0,2.6-0.5,3.3-1.4c0.7-0.9,1.1-2.4,1.1-4.2s-0.4-3.2-1.1-4.2s-1.8-1.4-3.3-1.4s-2.6,0.5-3.3,1.4
		C20.6,40.5,20.2,41.9,20.2,43.8z"/>
	<path class="st0" d="M38,45.3v6h-2.5v-15h4.2c1.9,0,3.4,0.4,4.3,1.1c0.9,0.7,1.4,1.8,1.4,3.3c0,1.9-1,3.2-2.9,4l4.2,6.7H44l-3.6-6
		L38,45.3L38,45.3z M38,43.3h1.7c1.1,0,2-0.2,2.5-0.6c0.5-0.4,0.8-1.1,0.8-1.9c0-0.8-0.3-1.5-0.8-1.8c-0.6-0.4-1.4-0.6-2.5-0.6H38
		V43.3z"/>
	<path class="st0" d="M55.7,36.3h4.5c2.1,0,3.6,0.3,4.5,0.9c0.9,0.6,1.4,1.6,1.4,2.9c0,0.9-0.2,1.6-0.7,2.2c-0.5,0.6-1.1,0.9-2,1.1
		v0.1c1.1,0.2,1.8,0.6,2.3,1.2c0.5,0.6,0.7,1.4,0.7,2.4c0,1.4-0.5,2.4-1.4,3.2s-2.3,1.1-3.9,1.1h-5.4C55.7,51.4,55.7,36.3,55.7,36.3
		z M58.2,42.5h2.4c1,0,1.8-0.2,2.3-0.5s0.7-0.9,0.7-1.7c0-0.7-0.3-1.2-0.8-1.5s-1.3-0.5-2.4-0.5h-2.1v4.2H58.2z M58.2,44.5v4.8h2.6
		c1,0,1.8-0.2,2.3-0.6c0.5-0.4,0.8-1,0.8-1.9c0-0.8-0.3-1.4-0.8-1.7c-0.5-0.4-1.3-0.6-2.4-0.6H58.2z"/>
	<path class="st0" d="M79.6,51.3l-1.5-4.2h-5.7l-1.5,4.2h-2.6l5.6-15.1h2.7l5.6,15.1C82.2,51.3,79.6,51.3,79.6,51.3z M77.5,45
		l-1.4-4.1c-0.1-0.3-0.2-0.7-0.4-1.3c-0.2-0.6-0.3-1-0.4-1.3c-0.2,0.8-0.5,1.8-0.8,2.8L73.1,45H77.5z"/>
	<path class="st0" d="M87.3,45.3v6h-2.5v-15H89c1.9,0,3.4,0.4,4.3,1.1c0.9,0.7,1.4,1.8,1.4,3.3c0,1.9-1,3.2-2.9,4l4.2,6.7h-2.8
		l-3.6-6L87.3,45.3L87.3,45.3z M87.3,43.3H89c1.1,0,2-0.2,2.5-0.6c0.5-0.4,0.8-1.1,0.8-1.9c0-0.8-0.3-1.5-0.8-1.8
		c-0.6-0.4-1.4-0.6-2.5-0.6h-1.6L87.3,43.3L87.3,43.3z"/>
	<path class="st0" d="M111.5,51.3h-3l-7.4-12H101V40c0.1,1.3,0.1,2.4,0.1,3.5v7.8h-2.2v-15h3l7.4,11.9h0.1c0-0.2,0-0.7-0.1-1.7
		c0-1-0.1-1.8-0.1-2.3v-7.9h2.3C111.5,36.3,111.5,51.3,111.5,51.3z"/>
	<path class="st0" d="M124.6,51.3h-8.5v-15h8.5v2.1h-6v4.1h5.7v2.1h-5.7v4.7h6V51.3z"/>
	<path class="st0" d="M137.1,47.2c0,1.3-0.5,2.4-1.5,3.1c-1,0.8-2.3,1.1-4,1.1s-3.1-0.3-4.2-0.8v-2.3c0.7,0.3,1.4,0.6,2.2,0.8
		s1.5,0.3,2.2,0.3c1,0,1.7-0.2,2.2-0.6c0.5-0.4,0.7-0.9,0.7-1.5s-0.2-1-0.6-1.4c-0.4-0.4-1.3-0.9-2.6-1.4c-1.4-0.6-2.3-1.2-2.9-1.9
		c-0.6-0.7-0.8-1.6-0.8-2.6c0-1.3,0.4-2.2,1.3-3c0.9-0.7,2.1-1.1,3.6-1.1c1.4,0,2.9,0.3,4.3,0.9l-0.8,2c-1.3-0.6-2.5-0.8-3.6-0.8
		c-0.8,0-1.4,0.2-1.8,0.5c-0.4,0.3-0.6,0.8-0.6,1.4c0,0.4,0.1,0.7,0.2,1c0.2,0.3,0.4,0.5,0.8,0.8c0.4,0.2,1.1,0.6,2,1
		c1.1,0.5,1.9,0.9,2.4,1.3c0.5,0.4,0.9,0.8,1.1,1.3C137,46,137.1,46.6,137.1,47.2z"/>
	<path class="st0" d="M139.5,46.6v-2h8.8v2H139.5z"/>
	<path class="st0" d="M149.9,55.5c-0.7,0-1.2-0.1-1.7-0.3v-2.1c0.6,0.1,1.1,0.2,1.5,0.2c1.3,0,2-0.9,2-2.6V36.3h2.5v14.5
		c0,1.5-0.4,2.7-1.1,3.5C152.4,55.1,151.3,55.5,149.9,55.5z"/>
	<path class="st0" d="M167.3,51.3h-8.5v-15h8.5v2.1h-6v4.1h5.7v2.1h-5.7v4.7h6V51.3z"/>
	<path class="st0" d="M185,51.3h-2.7l-2.5-9c-0.1-0.4-0.2-1-0.4-1.7s-0.3-1.2-0.3-1.5c-0.1,0.4-0.2,1-0.3,1.7
		c-0.2,0.7-0.3,1.2-0.4,1.6l-2.5,8.9h-2.7l-1.9-7.5l-2-7.5h2.5l2.1,8.8c0.3,1.4,0.6,2.6,0.7,3.7c0.1-0.6,0.2-1.2,0.3-2
		c0.2-0.7,0.3-1.3,0.4-1.7l2.4-8.8h2.4l2.5,8.8c0.2,0.8,0.5,2,0.8,3.7c0.1-1,0.3-2.2,0.7-3.7l2.1-8.7h2.5L185,51.3z"/>
	<path class="st0" d="M191.7,51.3v-15h2.5v15H191.7z"/>
	<path class="st0" d="M207.4,47.2c0,1.3-0.5,2.4-1.5,3.1c-1,0.8-2.3,1.1-4,1.1s-3.1-0.3-4.2-0.8v-2.3c0.7,0.3,1.4,0.6,2.2,0.8
		s1.5,0.3,2.2,0.3c1,0,1.7-0.2,2.2-0.6c0.5-0.4,0.7-0.9,0.7-1.5s-0.2-1-0.6-1.4c-0.4-0.4-1.3-0.9-2.6-1.4c-1.4-0.6-2.3-1.2-2.9-1.9
		c-0.6-0.7-0.8-1.6-0.8-2.6c0-1.3,0.4-2.2,1.3-3c0.9-0.7,2.1-1.1,3.6-1.1c1.4,0,2.9,0.3,4.3,0.9l-0.8,2c-1.3-0.6-2.5-0.8-3.6-0.8
		c-0.8,0-1.4,0.2-1.8,0.5c-0.4,0.3-0.6,0.8-0.6,1.4c0,0.4,0.1,0.7,0.2,1c0.2,0.3,0.4,0.5,0.8,0.8c0.4,0.2,1.1,0.6,2,1
		c1.1,0.5,1.9,0.9,2.4,1.3c0.5,0.4,0.9,0.8,1.1,1.3C207.3,46,207.4,46.6,207.4,47.2z"/>
	<path class="st0" d="M222.8,51.3h-2.5v-6.8h-6.9v6.8H211v-15h2.5v6.2h6.9v-6.2h2.5L222.8,51.3L222.8,51.3z"/>
	<path class="st0" d="M245.4,51.3h-2.5v-6.8H236v6.8h-2.5v-15h2.5v6.2h6.9v-6.2h2.5V51.3z"/>
	<path class="st0" d="M263.3,43.8c0,2.4-0.6,4.3-1.8,5.7c-1.2,1.4-3,2-5.2,2c-2.3,0-4-0.7-5.2-2s-1.8-3.3-1.8-5.7s0.6-4.4,1.8-5.7
		s3-2,5.2-2c2.2,0,4,0.7,5.2,2C262.7,39.4,263.3,41.3,263.3,43.8z M251.9,43.8c0,1.9,0.4,3.3,1.1,4.2c0.7,1,1.9,1.4,3.3,1.4
		c1.5,0,2.6-0.5,3.3-1.4c0.7-0.9,1.1-2.4,1.1-4.2s-0.4-3.2-1.1-4.2s-1.8-1.4-3.3-1.4s-2.6,0.5-3.3,1.4
		C252.2,40.5,251.9,41.9,251.9,43.8z"/>
	<path class="st0" d="M275.9,47.2c0,1.3-0.5,2.4-1.5,3.1c-1,0.8-2.3,1.1-4,1.1s-3.1-0.3-4.2-0.8v-2.3c0.7,0.3,1.4,0.6,2.2,0.8
		c0.8,0.2,1.5,0.3,2.2,0.3c1,0,1.7-0.2,2.2-0.6c0.5-0.4,0.7-0.9,0.7-1.5s-0.2-1-0.6-1.4s-1.3-0.9-2.6-1.4c-1.4-0.6-2.3-1.2-2.9-1.9
		s-0.8-1.6-0.8-2.6c0-1.3,0.4-2.2,1.3-3c0.9-0.7,2.1-1.1,3.6-1.1c1.4,0,2.9,0.3,4.3,0.9l-0.8,2c-1.3-0.6-2.5-0.8-3.6-0.8
		c-0.8,0-1.4,0.2-1.8,0.5s-0.6,0.8-0.6,1.4c0,0.4,0.1,0.7,0.2,1c0.2,0.3,0.4,0.5,0.8,0.8c0.4,0.2,1.1,0.6,2,1
		c1.1,0.5,1.9,0.9,2.4,1.3c0.5,0.4,0.9,0.8,1.1,1.3C275.7,46,275.9,46.6,275.9,47.2z"/>
	<path class="st0" d="M289.4,40.8c0,1.6-0.5,2.8-1.5,3.6s-2.5,1.3-4.4,1.3h-1.6v5.6h-2.5v-15h4.3c1.9,0,3.3,0.4,4.2,1.2
		C288.9,38.2,289.4,39.3,289.4,40.8z M281.9,43.6h1.3c1.3,0,2.2-0.2,2.8-0.7c0.6-0.4,0.9-1.1,0.9-2.1c0-0.9-0.3-1.5-0.8-1.9
		s-1.4-0.6-2.5-0.6h-1.7L281.9,43.6L281.9,43.6z"/>
	<path class="st0" d="M293,51.3v-15h2.5v15H293z"/>
	<path class="st0" d="M305.3,51.3h-2.5V38.4h-4.4v-2.1h11.3v2.1h-4.4V51.3z"/>
	<path class="st0" d="M321.9,51.3l-1.5-4.2h-5.7l-1.5,4.2h-2.6l5.6-15.1h2.7l5.6,15.1C324.5,51.3,321.9,51.3,321.9,51.3z M319.8,45
		l-1.4-4.1c-0.1-0.3-0.2-0.7-0.4-1.3c-0.2-0.6-0.3-1-0.4-1.3c-0.2,0.8-0.5,1.8-0.8,2.8l-1.4,3.9C315.4,45,319.8,45,319.8,45z"/>
	<path class="st0" d="M327.2,51.3v-15h2.5v12.9h6.4v2.1C336.1,51.3,327.2,51.3,327.2,51.3z"/>
</g>
</svg>
