<svg id="Capa_1" enable-background="new 0 0 512.169 512.169" height="512" viewBox="0 0 512.169 512.169" width="512" xmlns="http://www.w3.org/2000/svg"><g><path d="m468.75 211.056-35.081-39.435v-82.822c0-11.32-9.209-20.529-20.528-20.529h-71.41l-44.451-49.969c-10.331-11.613-25.171-18.283-40.714-18.301-.021 0-.041 0-.062 0-15.52 0-30.349 6.635-40.692 18.208l-44.737 50.062h-6.747c-4.142 0-7.5 3.358-7.5 7.5s3.358 7.5 7.5 7.5h248.812c3.049 0 5.528 2.48 5.528 5.529v162.323l-32.062 17.358c-3.643 1.972-4.997 6.523-3.025 10.166 1.358 2.508 3.938 3.931 6.603 3.931 1.205 0 2.429-.292 3.563-.906l73.431-39.755c.246 1.784.371 3.591.371 5.412v210.267c0 21.821-17.753 39.574-39.573 39.574h-343.782c-21.821 0-39.573-17.753-39.573-39.574v-59.338c0-4.142-3.358-7.5-7.5-7.5s-7.5 3.358-7.5 7.5v59.338c0 30.092 24.481 54.574 54.573 54.574h343.781c30.092 0 54.573-24.481 54.573-54.574v-210.267c0-13.388-4.9-26.269-13.798-36.272zm-241.753-182.852c7.5-8.393 18.252-13.204 29.507-13.204h.045c11.271.013 22.032 4.85 29.523 13.271l35.582 39.999h-130.463zm206.671 214.797v-48.813l23.874 26.837c1.796 2.019 3.359 4.205 4.692 6.511z"/><path d="m37.121 373.795c4.142 0 7.5-3.358 7.5-7.5v-118.905c0-2.325.21-4.627.608-6.886l144.422 78.189c1.369 10.093 6.418 19.701 14.92 26.696l37.754 31.064c3.997 3.289 8.909 4.935 13.822 4.935 4.863 0 9.729-1.613 13.708-4.842l38.391-31.157c8.266-6.709 13.331-15.849 14.967-25.531l42.367-22.938c3.643-1.972 4.997-6.523 3.025-10.166-1.972-3.642-6.522-4.997-10.166-3.024l-35.826 19.396c-1.325-5.466-3.771-10.764-7.404-15.55-13.84-18.235-40.028-21.931-58.378-8.242l-.247.185-.248-.185c-18.35-13.69-44.537-9.994-58.372 8.234l-.141.186c-3.385 4.459-5.744 9.37-7.118 14.452l-96.205-52.084v-161.323c0-3.049 2.48-5.529 5.529-5.529h32.337c4.142 0 7.5-3.358 7.5-7.5s-3.358-7.5-7.5-7.5h-32.337c-11.32 0-20.529 9.209-20.529 20.529v81.943l-35.999 40.282c-8.951 10.017-13.881 22.932-13.881 36.365v118.905c.001 4.143 3.359 7.501 7.501 7.501zm172.645-76.964.141-.186c5.265-6.936 13.311-10.593 21.445-10.593 5.588 0 11.219 1.728 16.014 5.305l4.733 3.531c2.66 1.985 6.31 1.985 8.97 0l4.732-3.531c11.772-8.786 28.577-6.412 37.46 5.289 8.815 11.613 6.852 27.909-4.47 37.097l-38.391 31.156c-2.482 2.016-6.078 2.004-8.546-.028l-37.754-31.064c-11.183-9.203-13.084-25.448-4.334-36.976zm-130.266-103.578v48.748l-28.839-15.613c1.182-1.886 2.522-3.686 4.025-5.368z"/><path d="m144.767 178.587 23.133 19.034c2.983 2.455 6.648 3.683 10.314 3.682 3.629 0 7.26-1.204 10.229-3.613l23.522-19.09c12.035-9.767 14.122-27.088 4.751-39.434-9.049-11.921-25.836-14.733-38.234-6.723-12.4-8.011-29.185-5.198-38.238 6.728l-.079.104c-9.307 12.262-7.286 29.53 4.602 39.312zm7.35-30.248.079-.104c2.656-3.5 6.716-5.345 10.821-5.345 2.82 0 5.661.872 8.08 2.676l2.899 2.164c2.661 1.986 6.31 1.986 8.97 0l2.9-2.164c5.94-4.433 14.42-3.235 18.901 2.668 4.448 5.86 3.458 14.083-2.255 18.718l-23.522 19.09c-.454.368-1.11.365-1.561-.005l-23.133-19.034c-5.641-4.642-6.601-12.839-2.179-18.664z"/><path d="m247.723 139.149h132.561c4.143 0 7.5-3.358 7.5-7.5s-3.357-7.5-7.5-7.5h-132.561c-4.142 0-7.5 3.358-7.5 7.5s3.358 7.5 7.5 7.5z"/><path d="m247.723 172.68h132.561c4.143 0 7.5-3.358 7.5-7.5s-3.357-7.5-7.5-7.5h-132.561c-4.142 0-7.5 3.358-7.5 7.5s3.358 7.5 7.5 7.5z"/><path d="m247.723 206.21h132.561c4.143 0 7.5-3.358 7.5-7.5s-3.357-7.5-7.5-7.5h-132.561c-4.142 0-7.5 3.358-7.5 7.5s3.358 7.5 7.5 7.5z"/><path d="m124.866 232.241c0 4.142 3.358 7.5 7.5 7.5h247.918c4.143 0 7.5-3.358 7.5-7.5s-3.357-7.5-7.5-7.5h-247.918c-4.142 0-7.5 3.358-7.5 7.5z"/></g></svg>