<?xml version="1.0" encoding="UTF-8"?>
<svg width="30px" height="30px" viewBox="0 0 30 30" version="1.1" xmlns="http://www.w3.org/2000/svg" xmlns:xlink="http://www.w3.org/1999/xlink">
    <!-- Generator: Sketch 47.1 (45422) - http://www.bohemiancoding.com/sketch -->
    <title>MyChart-icon-small</title>
    <desc>Created with Sketch.</desc>
    <defs></defs>
    <g id="Page-1" stroke="none" stroke-width="1" fill="none" fill-rule="evenodd">
        <g id="MyChart-icon-small" fill-rule="nonzero" fill="#00529B">
            <g id="Group">
                <path d="M4.97435897,5.87179487 C4.43589744,5.87179487 4,6.30769231 4,6.84615385 C4,7.38461538 4.43589744,7.82051282 4.97435897,7.82051282 L14.6153846,7.82051282 C15.1538462,7.82051282 15.5897436,7.38461538 15.5897436,6.84615385 C15.5897436,6.30769231 15.1538462,5.87179487 14.6153846,5.87179487 L4.97435897,5.87179487 Z" id="Shape"></path>
                <path d="M14.6153846,10.5299145 L4.97435897,10.5299145 C4.43589744,10.5299145 4,10.965812 4,11.5042735 C4,12.042735 4.43589744,12.4786325 4.97435897,12.4786325 L14.6153846,12.4786325 C15.1538462,12.4786325 15.5897436,12.042735 15.5897436,11.5042735 C15.5897436,10.965812 15.1538462,10.5299145 14.6153846,10.5299145 Z" id="Shape"></path>
                <path d="M10.4102564,15.1880342 L4.97435897,15.1880342 C4.43589744,15.1880342 4,15.6239316 4,16.1623932 C4,16.7008547 4.43589744,17.1367521 4.97435897,17.1367521 L10.3846154,17.1367521 C10.9230769,17.1367521 11.3589744,16.7008547 11.3589744,16.1623932 C11.3589744,15.6239316 10.9487179,15.1880342 10.4102564,15.1880342 Z" id="Shape"></path>
                <path d="M9.07692308,19.8461538 L4.97435897,19.8461538 C4.43589744,19.8461538 4,20.2820513 4,20.8205128 C4,21.3589744 4.43589744,21.7948718 4.97435897,21.7948718 L9.05128205,21.7948718 C9.58974359,21.7948718 10.025641,21.3589744 10.025641,20.8205128 C10.025641,20.2820513 9.61538462,19.8461538 9.07692308,19.8461538 Z" id="Shape"></path>
                <path d="M8.35897436,1.97435897 L18.6923077,1.97435897 L18.6923077,11.2820513 L20.6410256,11.2820513 L20.6410256,1 C20.6410256,0.461538462 20.2051282,0.0256410256 19.6666667,0.0256410256 L1.20512821,0.0256410256 C0.666666667,0.0256410256 0.230769231,0.461538462 0.230769231,1 L0.230769231,28.4102564 C0.230769231,28.9487179 0.666666667,29.3846154 1.20512821,29.3846154 L11.1794872,29.3846154 L12.025641,27.4358974 L2.17948718,27.4358974 L2.17948718,1.97435897 L4.17948718,1.97435897 L8.35897436,1.97435897 Z" id="Shape"></path>
            </g>
            <g id="Group" transform="translate(9.743590, 8.384615)">
                <path d="M6.82051282,5.69230769 C6.84615385,5.71794872 6.84615385,5.71794872 6.82051282,5.69230769 L7.05128205,7.69230769 C7.17948718,8.87179487 8.84615385,10.1282051 9.97435897,10.1282051 C11.1025641,10.1282051 12.7692308,8.87179487 12.8974359,7.69230769 L13.1282051,5.66666667 C13.3333333,5.38461538 13.5641026,4.92307692 13.5641026,4 C13.5641026,1.02564103 12.4615385,1.82051282 12.4615385,1.82051282 C12.4615385,1.82051282 12.1538462,0.179487179 9.79487179,0.179487179 C7.82051282,0.179487179 6.71794872,1.82051282 6.71794872,1.82051282 L7.17948718,2.02564103 C7.17948718,2.02564103 6.61538462,2.46153846 6.48717949,2.97435897 C6.35897436,3.46153846 6.33333333,4.20512821 6.48717949,4.56410256 C6.69230769,4.94871795 6.48717949,5.23076923 6.82051282,5.69230769 Z" id="Shape"></path>
                <path d="M3.8974359,21 L4.53846154,19.5641026 L4.82051282,21 L15.1794872,21 L15.5128205,19.1794872 L16.3333333,21 L20.1794872,21 L17.1538462,12.2564103 C16.8974359,11.4871795 16.1538462,10.9230769 15.3076923,10.8974359 L15.1282051,10.8974359 L10,10.6923077 C9.94871795,10.6923077 9.8974359,10.6923077 9.84615385,10.6923077 C9.84615385,10.6923077 9.82051282,10.6923077 9.82051282,10.6923077 L5.05128205,10.8717949 L4.87179487,10.8717949 C4.05128205,10.8974359 3.30769231,11.4358974 3.02564103,12.2564103 L0.0769230769,21 L3.8974359,21 Z" id="Shape"></path>
            </g>
        </g>
    </g>
</svg>