<svg xmlns="http://www.w3.org/2000/svg" viewBox="0 0 540 77.82"><defs><style>.cls-1,.cls-2{fill:#fff;}.cls-2{fill-rule:evenodd;}</style></defs><title>bjc_healthcare-white</title><g id="Layer_2" data-name="Layer 2"><g id="Layer_1-2" data-name="Layer 1"><path class="cls-1" d="M184.45,37.78V50.32c0,10.62.49,10.94,3.06,10.94h3.62v2.65H170.3V61.26h3.62c1.05,0,1.21-.48,1.21-1.29V26.45c0-10.61-.48-10.93-3.06-10.93h-3.61V12.86h20.82v2.66h-3.62c-1,0-1.21.48-1.21,1.28V34.65h22.67v-8.2c0-10.61-.48-10.93-3.05-10.93h-3.62V12.86h20.82v2.66h-3.62c-1,0-1.2.48-1.2,1.28V50.32c0,10.62.48,10.94,3.05,10.94h3.62v2.65H202.3V61.26h3.62c1,0,1.2-.48,1.2-1.29V37.78Z"/><path class="cls-1" d="M256.16,59.09a23.12,23.12,0,0,1-15.67,6.11c-10.7,0-16.24-7.8-16.24-17.77s6-19,16.8-19c7.64,0,11.82,5.14,14.79,11.58L233,46c.4,7.56,3.22,15,12,15a15.6,15.6,0,0,0,10-3.7ZM233.49,43.33l13.43-3.7c-1.21-3.13-3.54-8.6-7.48-8.6-5.14,0-6.67,8.6-6.51,12.46Z"/><path class="cls-1" d="M279.64,42.13V39.79c0-5.06-.16-8.12-5.47-8.12a10.16,10.16,0,0,0-5.47,1.61c0,4.42-1.93,8-5.46,8a2.7,2.7,0,0,1-2.82-2.57c0-6.35,10.78-10.37,17.93-10.37,8.92,0,9.73,2.49,9.73,11.25V52c0,6.27,1,7.64,5.63,8.44l-3.14,4.75c-2.09,0-7.8-.24-10.29-6.59-3.3,2.65-8.36,6.59-12.86,6.59-4.67,0-7.56-3.3-7.56-7.88,0-7.8,9.81-11.09,15.68-13.51Zm0,2.89-1.45.56c-4.66,1.85-9.89,4.91-9.89,9.73,0,2.41,1.29,4.26,3.86,4.26,2.89,0,5.55-1.85,7.48-3.94Z"/><path class="cls-1" d="M310.83,50.32c0,9.33.32,11.18,2.57,11.18h3.54v2.41H298.05V61.5h2.89c.88,0,1.45-.08,1.45-1.29v-34c0-12.62-.73-14.79-2.66-14.79h-3.37V9c4.82-.48,9.65-1,14.47-1.76Z"/><path class="cls-1" d="M343.23,62.22a21.58,21.58,0,0,1-10.62,3c-6.67,0-8.68-2.9-8.68-9.25V32.08h-2.81c-.8,0-1.53-.08-1.53-.89,0-.64,1.53-1.77,11.18-10.21h1.6v8.68h8.12c-.16,2.42-.56,2.42-1.77,2.42h-6.35V53.7c0,4.58.4,7.72,5,7.72a12.33,12.33,0,0,0,4.82-1.13Z"/><path class="cls-1" d="M359.63,34.17c4.34-3.22,8.28-5.79,12.62-5.79,6.35,0,9.72,3.78,9.72,11.09V50.32c0,9.33.33,11.18,2.58,11.18h3.05v2.41H369.84V61.5h2.25c.88,0,1.44-.08,1.44-1.29V43.49c0-5.47,0-10.05-5.94-10.05-2.82,0-5.63,1.53-8,3.7V50.32c0,9.33.32,11.18,2.57,11.18H365v2.41H346.84V61.5h2.9c.88,0,1.45-.08,1.45-1.29v-34c0-12.62-.73-14.79-2.66-14.79h-3.37V9c4.82-.48,9.64-1,14.47-1.76Z"/><path class="cls-1" d="M433.83,21.38c-.73,0-.81-.4-1.21-2-.56-2.34-6.43-4.75-11.33-4.75-13.43,0-21.55,10.93-21.55,24.2,0,12,7,23.31,19.86,23.31,4.5,0,14.07-2.49,15-8,.16-.72.24-1.44,1.21-1.44a.93.93,0,0,1,1,.88c0,.64-.24,2.33-.64,7.72a45.94,45.94,0,0,1-19.05,4.1c-16,0-27.25-8.28-27.25-25.08,0-17.77,15.11-29,32-29a38.07,38.07,0,0,1,13.67,2.81C435,21.3,434.87,21.38,433.83,21.38Z"/><path class="cls-1" d="M460.17,42.13V39.79c0-5.06-.16-8.12-5.47-8.12a10.16,10.16,0,0,0-5.46,1.61c0,4.42-1.93,8-5.47,8A2.69,2.69,0,0,1,441,38.75c0-6.35,10.77-10.37,17.92-10.37,8.93,0,9.73,2.49,9.73,11.25V52c0,6.27,1,7.64,5.63,8.44L471.1,65.2c-2.09,0-7.79-.24-10.29-6.59-3.29,2.65-8.36,6.59-12.86,6.59-4.66,0-7.56-3.3-7.56-7.88,0-7.8,9.81-11.09,15.68-13.51Zm0,2.89-1.45.56c-4.66,1.85-9.88,4.91-9.88,9.73,0,2.41,1.28,4.26,3.85,4.26,2.9,0,5.55-1.85,7.48-3.94Z"/><path class="cls-1" d="M491.52,35.61c4-4.26,6.44-7.23,10.46-7.23a5.64,5.64,0,0,1,3.93,1.69l-1,5.22c-.24,1.53-.4,2.09-1.21,2.09-1.6,0-.56-2.73-4.74-2.73-3.05,0-5.39,1.85-7.48,3.86V50.32c0,9.33.33,11.18,2.58,11.18h4.18v2.41H478.74V61.5h2.9c.88,0,1.44-.08,1.44-1.29V43.81c0-8.12,0-11.65-2.73-11.65H477V29.74c4.83-.4,9.73-.72,14.55-1.36Z"/><path class="cls-1" d="M540,59.09a23.13,23.13,0,0,1-15.68,6.11c-10.69,0-16.24-7.8-16.24-17.77s6-19,16.81-19c7.63,0,11.81,5.14,14.79,11.58l-22.83,6c.4,7.56,3.21,15,12,15a15.58,15.58,0,0,0,10-3.7ZM517.33,43.33l13.42-3.7c-1.2-3.13-3.53-8.6-7.47-8.6-5.15,0-6.67,8.6-6.51,12.46Z"/><path class="cls-2" d="M144.74,29.7V77.82H29.7A29.79,29.79,0,0,1,0,48.12V0H115A29.79,29.79,0,0,1,144.74,29.7ZM124.29,49c-.15,2.87-1,9.44-11.1,9C99,57.35,96.13,44.19,96.13,36.58s2.52-19.22,14.48-19.14c12.71.09,12.6,5.63,12.6,10.16h3.46L127,16.18a42,42,0,0,0-16.61-3.46c-10.09,0-24.05,6.57-24.05,23.88,0,19.26,13.4,27.35,26.82,27.34,8.6,0,13.5-2.77,13.5-2.77s1-9.32,1.35-12.17ZM60.72,15.83c6.58.3,6.13,4.32,6.13,5.19V48.71c0,5.72-1.79,16-11.3,20.07l.92,3.12c1-.26,2-.62,3.21-1,10.74-3.4,17.06-14.35,16.75-25.1-.09-3.34,0-23.89,0-24.78s-.17-4.7,5.48-5.19V12.71H60.72ZM23.06,21c0-1.34,0-5-6.13-5.19V12.72H40.08c.69,0,5.29.1,7.58,1.56A9,9,0,0,1,52,22.75c-.69,7.39-7.37,10.32-7.37,10.32l.05.1c4.14,0,12.34,3,12.34,12.71C57,64.8,36.27,63.94,36.27,63.94H16.93V60.83c6.11-.32,6.13-4.12,6.13-5.2Zm9.58,11.31h1.21c9.77,0,9-8.54,9-8.54C42.57,17.57,37,17.57,37,17.57H32.64ZM47,47.67c-.33-12.23-12.24-11-12.24-11H32.64V58h3.14C40.5,57.72,47.19,55.22,47,47.67Z"/></g></g></svg>