<?xml version="1.0" encoding="utf-8"?>
<!-- Generator: Adobe Illustrator 22.1.0, SVG Export Plug-In . SVG Version: 6.00 Build 0)  -->
<svg version="1.1" id="Layer_1" xmlns="http://www.w3.org/2000/svg" xmlns:xlink="http://www.w3.org/1999/xlink" x="0px" y="0px"
	 viewBox="0 0 128 128" style="enable-background:new 0 0 128 128;" xml:space="preserve">
<style type="text/css">
	.st0{fill:#FFFFFF;}
</style>
<g>
	<g>
		<g>
			<path class="st0" d="M25.4,34.9c-2.1,0-3.8,1.7-3.8,3.8s1.7,3.8,3.8,3.8H63c2.1,0,3.8-1.7,3.8-3.8s-1.7-3.8-3.8-3.8H25.4z"/>
		</g>
		<g>
			<path class="st0" d="M63,49.2H25.4c-2.1,0-3.8,1.7-3.8,3.8c0,2.1,1.7,3.8,3.8,3.8H63c2.1,0,3.8-1.7,3.8-3.8
				C66.8,50.9,65.1,49.2,63,49.2z"/>
		</g>
		<g>
			<path class="st0" d="M46.6,63.5H25.4c-2.1,0-3.8,1.7-3.8,3.8s1.7,3.8,3.8,3.8h21.1c2.1,0,3.8-1.7,3.8-3.8S48.7,63.5,46.6,63.5z"
				/>
		</g>
		<g>
			<path class="st0" d="M41.4,77.7H25.4c-2.1,0-3.8,1.7-3.8,3.8s1.7,3.8,3.8,3.8h15.9c2.1,0,3.8-1.7,3.8-3.8S43.5,77.7,41.4,77.7z"
				/>
		</g>
		<g>
			<path class="st0" d="M38.6,19.7h40.3v24.6h7.6V15.9c0-2.1-1.7-3.8-3.8-3.8h-72c-2.1,0-3.8,1.7-3.8,3.8v95.2
				c0,2.1,1.7,3.8,3.8,3.8h38.9l3.3-7.6H14.5V19.7h7.8H38.6z"/>
		</g>
	</g>
	<g>
		<g>
			<path class="st0" d="M70.6,55.2C70.7,55.3,70.7,55.3,70.6,55.2l0.9,7.8c0.5,4.6,7,9.5,11.4,9.5s10.9-4.9,11.4-9.5l0.9-7.9
				c0.8-1.1,1.7-2.9,1.7-6.5c0-11.6-4.3-8.5-4.3-8.5s-1.2-6.4-10.4-6.4c-7.7,0-12,6.4-12,6.4l1.8,0.8c0,0-2.2,1.7-2.7,3.7
				c-0.5,1.9-0.6,4.8,0,6.2C70.1,52.3,69.3,53.4,70.6,55.2z"/>
		</g>
		<g>
			<path class="st0" d="M59.2,114.9l2.5-5.6l1.1,5.6h40.4l1.3-7.1l3.2,7.1h15l-11.8-34.1c-1-3-3.9-5.2-7.2-5.3l-0.7,0L83,74.7
				c-0.2,0-0.4,0-0.6,0c0,0-0.1,0-0.1,0l-18.6,0.7l-0.7,0c-3.2,0.1-6.1,2.2-7.2,5.4l-11.5,34.1H59.2z"/>
		</g>
	</g>
</g>
</svg>
