<?xml version="1.0" standalone="no"?>
<!DOCTYPE svg PUBLIC "-//W3C//DTD SVG 20010904//EN"
 "http://www.w3.org/TR/2001/REC-SVG-20010904/DTD/svg10.dtd">
<svg version="1.0" xmlns="http://www.w3.org/2000/svg"
 width="300.000000pt" height="146.000000pt" viewBox="0 0 300.000000 146.000000"
 preserveAspectRatio="xMidYMid meet">
<metadata>
Created by potrace 1.16, written by Peter Selinger 2001-2019
</metadata>
<g transform="translate(0.000000,146.000000) scale(0.100000,-0.100000)"
fill="#000000" stroke="none">
<path d="M0 730 l0 -730 1500 0 1500 0 0 730 0 730 -1500 0 -1500 0 0 -730z
m2910 5 l0 -645 -1405 0 -1405 0 0 645 0 645 1405 0 1405 0 0 -645z m-697
-662 c-386 -2 -1020 -2 -1410 0 -389 1 -74 2 702 2 776 0 1094 -1 708 -2z"/>
<path d="M1045 1250 l70 -6 -71 -2 c-39 -1 -74 -5 -78 -9 -4 -4 57 -71 136
-150 l142 -142 -20 -23 c-62 -70 -231 -266 -244 -282 -9 -12 -10 -17 -2 -12 6
4 12 2 12 -3 0 -7 28 -12 68 -13 l67 -2 -70 -6 -70 -6 69 -2 c66 -2 70 -1 100
31 83 88 191 220 188 230 -2 8 0 9 7 2 6 -6 12 -62 14 -125 l3 -115 2 135 c1
90 -2 130 -8 120 -5 -8 -10 -11 -10 -6 0 6 -15 -5 -34 -23 -22 -21 -32 -39
-29 -49 4 -9 2 -13 -4 -9 -5 3 -23 -7 -38 -23 -16 -17 -27 -30 -24 -30 3 0
-19 -25 -48 -55 -53 -54 -54 -55 -112 -55 -51 0 -59 2 -56 18 2 9 4 21 4 25 1
5 5 6 10 3 13 -8 137 133 133 151 -2 8 1 12 6 9 5 -3 22 8 37 24 16 17 25 30
20 30 -5 0 6 13 25 29 l35 30 -119 120 c-66 66 -124 119 -130 118 -6 -1 -10 4
-8 11 1 6 -4 11 -10 10 -7 -2 -12 3 -10 10 1 8 -2 11 -7 8 -5 -4 -12 -2 -16 4
-4 6 19 10 65 10 l72 0 131 -125 c72 -69 134 -125 139 -125 4 0 8 56 8 125 l0
125 50 0 50 0 0 -305 0 -305 -50 0 -50 0 0 145 c0 80 -3 145 -7 145 -5 0 -7
-67 -5 -150 l3 -150 60 0 59 0 0 315 0 315 -60 0 -60 0 -2 -127 -2 -128 -6
130 -6 130 -3 -110 c-2 -60 -2 -114 -1 -120 1 -5 -2 -6 -7 -2 -4 5 -8 13 -8
18 0 5 -52 58 -115 119 l-115 109 -70 -1 -70 -2 70 -6z"/>
<path d="M1780 1134 c-60 -70 -107 -132 -103 -138 4 -7 2 -8 -5 -1 -7 6 -13
58 -15 125 l-3 115 -1 -138 -1 -139 33 32 c21 21 31 38 28 49 -4 9 -2 13 2 8
13 -11 64 43 58 61 -4 9 -2 13 4 9 9 -6 66 44 64 57 -3 18 0 27 8 22 4 -3 16
3 26 14 15 16 31 20 83 20 61 0 64 -1 49 -17 -8 -10 -15 -20 -14 -23 1 -3 -17
-23 -41 -44 -23 -21 -41 -41 -38 -43 2 -3 -13 -21 -35 -40 -22 -20 -38 -38
-35 -40 2 -3 -14 -21 -35 -40 -75 -67 -78 -59 77 -214 76 -76 142 -135 147
-132 6 3 7 1 3 -5 -4 -7 -33 -12 -69 -12 -63 0 -63 0 -117 55 -29 30 -57 52
-61 50 -4 -3 -37 29 -74 70 -37 41 -71 75 -76 75 -5 0 -9 -56 -9 -125 l0 -125
-50 0 -50 0 0 305 0 305 50 0 50 0 0 -145 c0 -80 3 -145 8 -145 4 0 6 67 4
150 l-3 150 -60 0 -59 0 0 -315 0 -315 60 0 60 0 2 128 2 127 6 -125 6 -125 3
105 c2 58 3 109 2 113 -1 5 3 6 9 2 6 -3 8 -10 6 -14 -5 -7 196 -203 228 -223
6 -4 40 -7 76 -6 l65 2 -70 6 -70 6 72 2 c39 1 74 6 77 11 3 4 -57 70 -134
147 -77 76 -140 142 -140 146 0 4 61 76 135 160 74 84 135 158 135 163 0 6 -5
3 -10 -5 -6 -10 -10 -11 -10 -2 0 8 -21 13 -67 14 l-68 2 70 6 70 6 -72 2 -72
2 -111 -126z"/>
<path d="M424 1226 c-29 -13 -71 -41 -94 -62 -43 -39 -100 -128 -99 -154 0
-10 3 -8 9 5 l9 20 1 -20 c1 -19 2 -18 10 3 5 12 6 30 3 39 -4 11 -3 14 5 9 8
-5 10 -2 6 9 -4 9 -2 15 3 13 5 -2 28 18 50 44 23 26 44 44 47 41 3 -3 8 2 12
11 3 9 10 13 15 10 5 -3 9 0 9 6 0 6 4 9 8 6 5 -3 26 0 46 6 32 10 35 13 20
20 -12 5 -4 6 21 3 22 -2 97 -5 168 -5 l127 0 0 -305 0 -305 -133 0 c-81 0
-154 5 -187 14 -29 8 -60 11 -68 8 -11 -4 -13 -1 -7 9 4 8 5 11 0 7 -4 -4 -33
18 -64 49 -31 31 -60 56 -64 55 -4 -1 -7 3 -6 10 1 7 1 20 0 28 -1 13 -2 13
-12 0 -8 -11 -9 -6 -5 20 5 26 4 30 -3 15 l-10 -20 -1 20 c-1 11 -4 15 -7 7
-13 -33 105 -189 135 -177 7 2 10 1 7 -5 -9 -14 49 -40 76 -34 17 4 20 3 11
-4 -23 -16 14 -19 186 -14 l162 5 0 313 0 314 -124 0 c-68 0 -143 2 -167 5
-34 5 -56 0 -95 -19z"/>
<path d="M2353 1243 l-143 -4 0 -313 0 -313 162 -5 c159 -5 237 4 206 23 -19
12 -36 11 -18 -2 11 -7 4 -8 -25 -5 -33 5 -36 4 -15 -4 21 -8 18 -9 -15 -5
-22 3 -95 5 -162 5 l-123 0 0 305 0 305 128 0 c70 0 145 2 167 5 33 4 36 3 15
-5 -21 -8 -18 -9 15 -4 31 4 37 2 25 -6 -12 -9 -10 -10 9 -5 16 5 21 4 17 -4
-5 -7 -1 -8 10 -4 12 4 15 3 10 -5 -5 -8 -2 -10 9 -6 9 4 15 3 13 -2 -3 -12
94 -109 106 -106 5 2 6 -4 2 -13 -3 -9 -2 -13 4 -10 6 3 9 -2 8 -12 0 -10 0
-27 1 -38 l2 -20 10 20 c6 15 8 9 4 -20 -3 -22 -6 -75 -7 -117 -1 -42 -5 -73
-8 -68 -8 12 -45 -59 -41 -79 1 -7 -2 -10 -8 -7 -5 3 -18 -4 -28 -17 -10 -13
-20 -24 -23 -24 -3 -1 -22 -9 -43 -19 -29 -14 -34 -20 -22 -26 21 -12 95 40
139 98 100 131 84 310 -39 423 -53 48 -138 92 -175 89 -14 -1 -89 -4 -167 -5z"/>
<path d="M510 1118 c0 -4 -6 -5 -14 -2 -8 3 -24 -4 -35 -15 -12 -12 -21 -18
-21 -14 0 3 -9 -2 -19 -11 -11 -10 -17 -25 -14 -34 4 -10 2 -13 -6 -8 -17 11
-41 -54 -41 -109 0 -55 24 -120 41 -109 8 5 10 2 6 -8 -6 -17 25 -53 36 -41 4
3 7 1 7 -6 0 -22 67 -41 150 -41 l80 0 0 203 0 202 -85 1 c-47 0 -85 -3 -85
-8z m108 -8 l52 0 0 -190 0 -190 -80 0 c-56 0 -81 4 -87 14 -11 17 -51 38 -62
32 -10 -6 -34 18 -26 26 3 3 -2 21 -10 41 -19 46 -19 118 0 163 8 20 13 40 10
44 -6 9 20 32 27 25 3 -3 17 0 32 6 19 9 23 15 14 21 -8 5 -1 6 16 2 22 -5 27
-4 21 6 -6 10 -2 12 16 7 13 -4 48 -7 77 -7z"/>
<path d="M2340 923 l0 -203 84 0 c61 0 89 4 99 15 8 8 17 11 21 8 3 -4 6 -1 6
6 0 7 5 9 10 6 17 -10 71 51 63 71 -4 11 -3 15 4 11 7 -5 9 1 6 15 -3 14 -1
18 4 11 4 -6 8 24 7 70 -1 61 -4 81 -14 79 -8 -2 -10 3 -6 13 4 11 2 14 -6 9
-7 -5 -9 -2 -5 8 3 9 -3 24 -14 34 -10 9 -19 14 -19 11 0 -4 -9 2 -21 14 -11
11 -27 18 -35 15 -8 -3 -14 -2 -14 2 0 5 -38 8 -85 8 l-85 -1 0 -202z m154
186 c-5 -9 1 -10 22 -5 17 4 24 3 16 -2 -9 -6 -6 -12 13 -20 15 -7 30 -10 35
-7 4 3 14 -3 21 -12 12 -14 12 -16 0 -9 -8 5 -12 5 -9 0 35 -73 40 -91 35
-144 -10 -92 -15 -112 -33 -129 -11 -10 -14 -11 -9 -2 5 9 3 12 -6 9 -8 -3
-13 -10 -12 -16 2 -6 -4 -9 -12 -6 -7 3 -22 -4 -32 -15 -15 -18 -29 -21 -95
-21 l-78 0 0 190 0 189 63 4 c34 2 68 4 75 5 8 1 10 -3 6 -9z"/>
<path d="M448 448 c-13 -18 -23 -36 -23 -40 0 -20 -11 -13 -13 9 -3 41 -12 41
-12 0 0 -20 4 -37 8 -37 4 0 23 16 42 35 20 21 44 35 58 35 22 0 20 -4 -27
-56 l-51 -56 50 -58 51 -59 -28 -3 c-23 -2 -37 7 -75 47 l-47 50 -1 -47 c0
-36 -4 -48 -17 -51 -14 -4 -12 -5 5 -6 19 -1 22 4 22 41 0 23 3 38 7 34 4 -4
6 -24 4 -44 -1 -20 0 -34 3 -31 3 3 7 17 8 32 1 14 6 23 10 21 5 -3 6 -9 3
-13 -4 -8 27 -41 54 -56 10 -6 12 -4 6 5 -6 10 0 12 28 7 30 -5 35 -3 30 10
-5 12 -3 14 8 8 8 -4 -10 17 -40 48 l-54 56 30 38 c17 21 40 47 52 57 12 11
21 24 21 30 0 6 -5 4 -10 -4 -6 -10 -10 -11 -10 -2 0 7 -14 13 -32 13 l-33 2
35 7 35 7 -37 2 c-31 1 -40 -4 -60 -31z"/>
<path d="M2163 437 c-40 -38 -46 -50 -50 -93 -8 -91 55 -153 150 -148 49 3 50
2 12 -5 -37 -8 -38 -8 -9 -10 50 -2 94 18 94 42 0 18 2 19 10 7 11 -18 12 -3
1 25 -7 18 -9 17 -15 -10 -6 -28 -10 -30 -61 -33 -66 -4 -120 19 -139 57 -7
14 -16 51 -19 81 -3 30 -3 50 -1 44 3 -6 19 3 37 21 24 24 48 36 91 45 32 6
60 9 63 6 4 -3 -2 -6 -13 -7 -14 -1 -13 -3 6 -8 14 -4 30 -18 37 -31 7 -14 13
-20 13 -13 0 6 3 20 6 30 4 11 3 14 -3 7 -6 -9 -11 -8 -21 2 -10 11 -10 14 0
14 9 0 9 3 -2 10 -8 5 -43 10 -78 10 -61 0 -65 -2 -109 -43z"/>
<path d="M2445 438 c-69 -70 -72 -135 -10 -201 38 -40 38 -40 105 -39 45 0 45
0 10 -7 -32 -8 -33 -8 -7 -10 66 -3 158 72 156 127 l-1 27 -8 -30 c-7 -28 -8
-28 -9 -5 -2 23 -3 22 -14 -9 -19 -53 -57 -76 -133 -77 -43 -2 -62 1 -57 9 3
5 1 7 -4 4 -6 -4 -17 1 -26 11 -15 17 -17 21 -17 45 0 8 -4 7 -11 -3 -7 -11
-8 -5 -3 22 3 20 6 52 7 72 0 19 4 33 8 31 3 -3 14 4 24 15 18 20 54 34 115
45 26 5 31 3 20 -4 -13 -9 -13 -11 1 -11 9 0 28 -9 43 -21 14 -11 26 -17 26
-13 0 19 23 -17 30 -48 7 -31 8 -31 9 -6 1 32 -55 102 -75 94 -8 -3 -13 0 -11
7 1 8 -18 13 -61 15 -63 3 -64 3 -107 -40z"/>
<path d="M1470 335 l0 -125 90 0 c89 0 90 0 90 25 0 23 -4 25 -52 27 l-53 2
48 3 c57 5 53 22 -6 25 l-42 1 45 7 45 7 -57 1 -58 2 0 -30 0 -30 60 0 c47 0
60 -3 60 -15 0 -12 -16 -15 -80 -15 l-80 0 0 115 0 115 80 0 c63 0 80 -3 80
-15 0 -10 -15 -15 -57 -17 l-58 -3 -2 -35 -1 -35 8 35 7 35 3 -35 c2 -25 4
-29 7 -12 4 19 11 22 51 24 l47 1 -50 7 -50 7 53 1 c48 2 52 4 52 27 0 25 -1
25 -90 25 l-90 0 0 -125z"/>
<path d="M1214 407 c-3 -8 -4 -45 -2 -83 l3 -69 38 -3 c22 -2 37 1 37 8 0 6 5
8 10 5 6 -3 10 -1 10 5 0 6 4 8 10 5 6 -4 7 1 3 11 -3 10 -2 15 3 12 13 -9 9
79 -5 96 -8 10 -25 13 -49 10 -31 -3 -33 -2 -12 5 24 9 24 9 -8 10 -19 1 -35
-5 -38 -12z"/>
</g>
</svg>
