<?xml version="1.0" standalone="no"?>
<!DOCTYPE svg PUBLIC "-//W3C//DTD SVG 1.1//EN" "http://www.w3.org/Graphics/SVG/1.1/DTD/svg11.dtd" >
<svg xmlns="http://www.w3.org/2000/svg">
<metadata>Generated by IcoMoon</metadata>
<defs>
<font id="BarnesJewishHospital" horiz-adv-x="1024">
<font-face units-per-em="1024" ascent="960" descent="-64" />
<missing-glyph horiz-adv-x="1024" />
<glyph unicode="&#x20;" d="" horiz-adv-x="512" />
<glyph unicode="&#x2d;" d="M994.839-31.905l804.029 804.029c42.952 42.952 42.952 112.645 0 155.634-42.952 42.952-112.645 42.952-155.634 0l-727.698-727.698-727.661 727.698c-42.989 42.989-112.645 42.989-155.634 0-21.495-21.458-32.242-49.628-32.242-77.799 0-28.17 10.747-56.341 32.205-77.799l804.029-804.029c21.861-21.861 50.619-32.462 79.303-32.095 28.647-0.403 57.404 10.197 79.303 32.058z" horiz-adv-x="1831" />
<glyph unicode="&#x30;" d="M572.518 448l438.938 438.938c16.742 16.691 16.742 43.827 0 60.518-16.742 16.742-43.827 16.742-60.518 0l-438.938-438.938-438.938 438.938c-16.691 16.742-43.827 16.742-60.518 0-16.742-16.691-16.742-43.827 0-60.518l438.938-438.938-438.938-438.938c-16.742-16.742-16.742-43.827 0-60.518 8.346-8.346 19.302-12.544 30.259-12.544s21.914 4.198 30.259 12.544l438.938 438.938 438.938-438.938c8.346-8.346 19.302-12.544 30.259-12.544s21.914 4.198 30.259 12.544c16.742 16.742 16.742 43.827 0 60.518l-438.938 438.938z" />
<glyph unicode="&#x31;" d="M1260.049 838.783c-46.37-20.581-96.184-34.441-148.476-40.7 53.384 32.005 94.378 82.659 113.656 143.016-49.94-29.611-105.256-51.158-164.142-62.75-47.168 50.276-114.37 81.651-188.713 81.651-142.764 0-258.52-115.757-258.52-258.52 0-20.245 2.268-39.986 6.678-58.928-214.838 10.794-405.316 113.74-532.791 270.113-22.261-38.179-34.987-82.575-34.987-129.953 0-89.674 45.656-168.805 115-215.174-42.38 1.344-82.239 12.979-117.101 32.341-0.042-1.092-0.042-2.142-0.042-3.234 0-125.249 89.127-229.749 207.362-253.48-21.673-5.922-44.522-9.072-68.127-9.072-16.675 0-32.845 1.638-48.638 4.62 32.887-102.694 128.357-177.457 241.509-179.515-88.455-69.345-199.928-110.674-321.061-110.674-20.875 0-41.456 1.218-61.658 3.612 114.412-73.335 250.288-116.135 396.285-116.135 475.501 0 735.533 393.933 735.533 735.533 0 11.214-0.252 22.345-0.756 33.433 50.486 36.457 94.336 81.987 128.987 133.817z" horiz-adv-x="1260" />
<glyph unicode="&#x32;" d="M380.448 623.193c0 9.882 7.145 14.123 15.838 9.424l338.665-183.036c8.693-4.7 8.702-12.39 0.010-17.089l-338.675-183.031c-8.693-4.7-15.833-0.459-15.833 9.424v364.309zM1024 448c0 282.32-229.685 512-512 512s-512-229.68-512-512 229.68-512 512-512 512 229.685 512 512zM985.838 448c0-261.275-212.562-473.838-473.838-473.838-261.275 0-473.838 212.562-473.838 473.838 0 261.275 212.562 473.838 473.838 473.838 261.275 0 473.838-212.562 473.838-473.838z" />
<glyph unicode="&#x33;" d="M59.619 131.868l-59.615 59.615 195.43 195.43 59.615-59.615-195.43-195.43zM246.735 272.555c18.237 18.237 48.030 18.237 66.267 0l19.895-19.895c18.237-18.237 48.030-18.237 66.267 0l308.224 308.224c18.237 18.237 18.237 48.030 0 66.267l-19.895 19.895c-18.237 18.237-18.237 48.030 0 66.267l130.779 130.779c18.237 18.237 48.030 18.237 66.267 0l19.895-19.895c18.237-18.237 34.621-34.621 36.425-36.425s18.237-18.237 36.425-36.425l33.109-33.109c18.237-18.237 18.237-48.030 0-66.267l-702.318-702.318c-18.237-18.237-48.030-18.237-66.267 0l-33.109 33.158c-18.237 18.237-34.621 34.621-36.425 36.425-1.804 1.804-18.237 18.237-36.425 36.425l-19.895 19.895c-18.237 18.237-18.237 48.030 0 66.267l130.779 130.731zM828.137 900.381l-195.43-195.43-59.615 59.615 195.43 195.43 59.615-59.615z" />
<glyph unicode="&#x34;" d="M1398.345 813.714h-1333.833c-35.621 0-64.512 37.522-64.512 73.143s28.891 73.143 64.512 73.143h1333.76c35.694 0 64.585-37.522 64.585-73.143s-28.891-73.143-64.512-73.143zM1398.345 374.857h-1333.833c-35.621 0-64.512 37.522-64.512 73.143s28.891 73.143 64.512 73.143h1333.76c35.694 0 64.585-37.522 64.585-73.143s-28.891-73.143-64.512-73.143zM1398.345-64h-1333.833c-35.621 0-64.512 37.522-64.512 73.143s28.891 73.143 64.512 73.143h1333.76c35.694 0 64.585-37.522 64.585-73.143s-28.891-73.143-64.512-73.143z" horiz-adv-x="1463" />
<glyph unicode="&#x35;" d="M1001.105 32.097l-241.547 241.547c130.313 166.628 119.12 408.621-34.152 561.893-80.261 80.261-186.98 124.462-300.439 124.462s-220.242-44.201-300.503-124.462c-80.261-80.261-124.462-186.98-124.462-300.439 0-113.523 44.201-220.242 124.462-300.503 80.261-80.261 186.98-124.462 300.503-124.462 92.917 0 181.001 30.082 254.013 84.84l242.501-242.501c11.003-11.003 25.376-16.472 39.813-16.472s28.81 5.469 39.813 16.472c21.941 22.005 21.941 57.62 0 79.625zM204.088 314.22c-58.956 59.019-91.455 137.436-91.455 220.878s32.499 161.858 91.455 220.814 137.436 91.455 220.878 91.455 161.858-32.499 220.814-91.455c121.791-121.791 121.791-319.901 0-441.692-58.956-58.956-137.436-91.455-220.814-91.455s-161.858 32.499-220.878 91.455z" horiz-adv-x="1018" />
<glyph unicode="&#x36;" d="M1223.193 783.684h-220.395v176.316h-44.079v-176.316h-220.395v-88.158h220.395v-176.316h44.079v176.316h220.395zM540.806 383.358c-29.489 20.893-85.91 71.673-85.91 101.514 0 34.999 10.006 52.234 62.636 93.359 53.997 42.184 92.169 90.803 92.169 159.786 0 82.119-36.586 177.859-105.217 177.859h103.498l73.039 44.079c0 0-244.815 0-326.405 0-146.342 0-284.045-95.828-284.045-224.274 0-131.223 99.751-229.608 248.606-229.608 10.359 0 20.409 3.967 30.282 4.672-9.653-18.513-16.574-37.467-16.574-59.066 0-36.453 19.615-65.105 44.432-89.216-18.734 0-36.85-0.088-56.597-0.088-181.209 0.044-320.719-115.179-320.719-234.897 0-117.867 152.954-191.523 334.163-191.523 206.642 0 320.763 117.294 320.763 235.206 0 94.55-27.858 151.235-114.121 212.196zM366.429 546.891c-84.103 2.513-164.018 94.065-178.52 204.483-14.502 110.462 41.875 194.962 125.978 192.449 84.059-2.513 164.018-91.111 178.52-201.573 14.502-110.418-41.875-197.871-125.978-195.358zM333.502-11.766c-125.273 0-215.767 79.298-215.767 174.553 0 93.359 112.225 171.071 237.498 169.748 29.224-0.309 56.465-5.025 81.238-13.003 68.014-47.297 116.809-74.009 130.562-127.917 2.601-10.932 4.011-22.172 4.011-33.676 0-95.255-61.402-169.704-237.542-169.704z" horiz-adv-x="1223" />
<glyph unicode="&#x37;" d="M553.643 558.933c-61.042-0.796-111.218-21.39-149.049-61.269-75.036-79.019-69.461-205.369-69.234-210.716 1.308-25.372 22.244-45.056 47.388-45.056 0.796 0 1.65 0 2.446 0.057 26.169 1.365 46.308 23.666 44.999 49.835-0.057 0.91-3.3 91.477 43.236 140.459 19.627 20.651 45.909 31.004 80.27 31.744v-119.751l222.265 169.188-222.322 169.131v-123.62zM1012.907 472.348l-476.558 476.558c-7.168 7.168-16.668 11.093-26.852 11.093s-19.684-3.925-26.852-11.093l-471.552-471.552c-7.168-7.168-11.093-16.668-11.093-26.852s3.925-19.684 11.093-26.852l476.558-476.558c7.168-7.168 16.668-11.093 26.852-11.093 10.183 0 19.684 3.925 26.852 11.093l471.552 471.552c14.791 14.848 14.791 38.912 0 53.703zM991.403 440.149l-471.552-471.552c-1.934-1.934-4.21-2.219-5.348-2.219-1.195 0-3.47 0.284-5.348 2.219l-476.558 476.558c-1.934 1.877-2.219 4.153-2.219 5.348s0.284 3.47 2.219 5.348l471.552 471.552c1.934 1.934 4.21 2.219 5.348 2.219s3.47-0.284 5.348-2.219l476.558-476.558c2.901-2.901 2.901-7.794 0-10.695z" />
<glyph unicode="&#x38;" d="M345.165-64v467.106h156.793l23.48 182.032h-180.273v116.214c0 52.687 14.644 88.602 90.198 88.602l96.415 0.082v162.806c-16.69 2.209-73.876 7.159-140.471 7.159-138.958 0-234.105-84.839-234.105-240.609v-134.254h-157.202v-182.032h157.202v-467.106h187.963z" horiz-adv-x="532" />
<glyph unicode="&#x39;" d="M1514.563 960h-1450.417c-35.396 0-64.145-28.749-64.145-64.145v-895.709c0-35.396 28.749-64.145 64.145-64.145h1450.417c35.396 0 64.145 28.749 64.145 64.145v895.709c0 35.396-28.749 64.145-64.145 64.145zM111.174-14.229l439.795 414.203c7.063 6.896 20.274 6.98 27.503 0.249l142.832-133.193c11.799-11.051 27.586-17.117 44.37-17.117 15.87 0 30.993 5.484 42.542 15.538l155.877 134.855c7.727 6.73 22.434 6.481 30.743-0.997l472.698-413.622h-1356.36zM779.633 301.513c-7.478-6.647-21.354-6.481-28.666 0.499l-635.804 608.218h1348.217l-683.747-608.717zM49.771 0.145v895.709c0 6.647 4.487 12.131 10.552 13.793 2.243-5.733 6.315-12.131 13.377-18.944l467.464-447.107c-7.312-2.908-14.042-7.229-19.692-12.713l-447.938-422.014c-8.143-7.894-12.297-15.538-14.125-22.185-5.65 1.911-9.638 7.229-9.638 13.461zM1528.937 0.145c0-5.567-3.241-10.303-7.81-12.713-2.243 6.481-6.647 13.71-14.956 21.188l-483.085 422.761c-5.816 5.235-12.547 9.306-19.858 12.131l502.943 447.771c7.063 6.315 11.383 12.38 13.793 17.864 5.235-2.16 8.891-7.312 8.891-13.294v-895.709z" horiz-adv-x="1579" />
<glyph unicode="&#x3d;" d="M534.28 472.030l-478.396 478.373c-12.789 12.789-33.497 12.789-46.286 0-12.789-12.765-12.789-33.521 0-46.286l456.128-456.104-456.128-456.128c-12.789-12.765-12.789-33.521 0-46.286 6.383-6.383 14.775-9.598 23.143-9.598s16.761 3.191 23.143 9.598l478.396 478.396c6.619 6.619 9.645 15.342 9.409 24.018 0.236 8.652-2.789 17.399-9.409 24.018z" horiz-adv-x="544" />
<glyph unicode="&#x61;" d="M381.769 448.048c-0.191-16.034 5.727-32.164 17.943-44.381l449.628-449.628c12.026-12.026 27.774-18.039 43.522-18.039s31.496 6.013 43.522 18.039c24.051 24.051 24.051 62.992 0 87.043l-406.966 406.87 406.966 406.966c24.051 24.051 24.051 62.992 0 87.043s-62.992 24.051-87.043 0l-449.628-449.628c-12.217-12.217-18.134-28.346-17.943-44.285zM0 448.048c-0.191-16.034 5.727-32.164 17.943-44.381l449.628-449.628c12.026-12.026 27.774-18.039 43.522-18.039s31.496 6.013 43.522 18.039c24.051 24.051 24.051 62.992 0 87.043l-406.966 406.87 406.966 406.966c24.051 24.051 24.051 62.992 0 87.043s-62.992 24.051-87.043 0l-449.628-449.628c-12.217-12.217-18.134-28.346-17.943-44.285z" horiz-adv-x="954" />
<glyph unicode="&#x63;" d="M964.381 131.868l59.615 59.615-195.43 195.43-59.615-59.615 195.43-195.43zM777.265 272.555c-18.237 18.237-48.030 18.237-66.267 0l-19.895-19.895c-18.237-18.237-48.030-18.237-66.267 0l-308.224 308.224c-18.237 18.237-18.237 48.030 0 66.267l19.895 19.895c18.237 18.237 18.237 48.030 0 66.267l-130.779 130.779c-18.237 18.237-48.030 18.237-66.267 0l-19.895-19.895c-18.237-18.237-34.621-34.621-36.425-36.425s-18.237-18.237-36.425-36.425l-33.109-33.109c-18.237-18.237-18.237-48.030 0-66.267l702.318-702.318c18.237-18.237 48.030-18.237 66.267 0l33.109 33.158c18.237 18.237 34.621 34.621 36.425 36.425s18.237 18.237 36.425 36.425l19.895 19.895c18.237 18.237 18.237 48.030 0 66.267l-130.779 130.731zM195.863 900.381l195.43-195.43 59.615 59.615-195.43 195.43-59.615-59.615z" />
<glyph unicode="&#x64;" d="M453.911 960c-250.597-72.612-453.911-257.859-453.911-533.784v-490.216h453.911v490.216h-221.553c0 156.115 76.242 272.381 221.466 323.209v210.574zM1176.485 960c-250.597-72.612-453.911-257.859-453.911-533.784v-490.216h453.911v490.216h-221.466c0 156.115 76.242 272.381 221.466 323.209v210.574z" horiz-adv-x="1176" />
<glyph unicode="&#x65;" d="M9.432 472.030l478.396 478.373c12.789 12.789 33.497 12.789 46.286 0 12.789-12.765 12.789-33.521 0-46.286l-456.128-456.104 456.128-456.104c12.789-12.765 12.789-33.521 0-46.286-6.383-6.383-14.775-9.598-23.143-9.598s-16.761 3.191-23.143 9.598l-478.396 478.373c-6.619 6.619-9.645 15.342-9.409 24.018-0.236 8.652 2.789 17.399 9.409 24.018z" horiz-adv-x="544" />
<glyph unicode="&#x66;" d="M512 960c282.738 0 512-229.262 512-512s-229.262-512-512-512-512 229.262-512 512 229.262 512 512 512z" />
<glyph unicode="&#x67;" d="M0 960l1024-1024 1024 1024z" horiz-adv-x="2048" />
<glyph unicode="&#x68;" d="M808.141 314.812c-16.589-14.336-43.349-13.858-59.46 1.092l-658.159 614.127c-16.111 14.95-11.332 29.969 10.65 29.969h1406.771c21.982 0 26.351-14.541 9.762-28.877l-709.564-616.311zM807.595 253.918c-16.316-14.677-42.598-14.268-58.368 1.024l-146.364 141.79c-15.838 15.223-41.916 15.497-58.027 0.614l-454.315-427.759c-16.111-15.019-11.332-33.587 10.65-33.587h1406.771c21.982 0 26.351 18.091 9.694 32.495l-490.564 426.735c-16.657 14.336-43.554 15.633-59.938 0.956l-159.539-142.268zM30.037 918.221c-16.179 14.882-30.037 9.079-30.037-12.834v-907.469c0-21.982 13.858-27.716 30.037-12.834l476.092 439.433c16.111 14.882 16.111 39.322 0 54.204l-476.092 439.501zM1073.493 477.833c-16.589-14.404-16.794-38.161-0.41-52.838l467.285-418.679c16.384-14.677 29.764-8.67 29.764 13.244v849.647c0 21.982-13.585 28.126-30.174 13.722l-466.466-405.094z" horiz-adv-x="1570" />
<glyph unicode="&#x69;" d="M978.816 352h-933.632c-24.96 0-45.184 39.040-45.184 64s20.224 64 45.184 64h933.632c24.96 0 45.184-39.040 45.184-64s-20.224-64-45.184-64z" />
<glyph unicode="&#x6a;" d="M1141.179 661.357h-192.606c0.438 2.629 0.689 5.321 0.689 8.137v239.741c0.063 27.98-22.722 50.765-50.702 50.765h-607.802c-27.98 0-50.765-22.785-50.765-50.765v-239.803c0-2.754 0.313-5.446 0.689-8.137h-187.223c-28.982 0.063-53.457-23.223-53.457-50.702v-469.091c0-27.542 24.475-50.765 53.457-50.765h181.089c1.878 0 3.631 0.125 5.446 0.313v-104.222c0-27.98 22.785-50.765 50.765-50.765h607.802c27.98 0 50.765 22.785 50.765 50.765v104.973c3.505-0.689 7.073-1.064 10.766-1.064h181.089c27.417 0 48.136 21.846 48.136 50.765v469.091c0 28.919-20.657 50.765-48.136 50.765zM282.681 909.235c0 4.444 3.631 8.137 8.137 8.137h607.802c4.444 0 8.137-3.631 8.137-8.137v-239.803c0-4.444-3.631-8.137-8.137-8.137h-607.802c-4.444 0-8.137 3.631-8.137 8.137v239.803zM906.633 141.438v-154.674c0-4.444-3.631-8.137-8.137-8.137h-607.802c-4.444 0-8.137 3.631-8.137 8.137v271.79c0 3.38 5.446 8.137 10.766 8.137h605.111c4.444 0 8.137-3.631 8.137-8.137v-117.116zM1146.625 141.438c0-1.878-0.376-8.137-5.446-8.137h-181.089c-5.321 0-10.766 4.695-10.766 8.137v117.116c0 28.919-20.657 50.765-48.136 50.765h-610.431c-27.98 0-50.765-22.785-50.765-50.765v-117.116c0-1.878-0.376-8.137-5.446-8.137h-181.089c-5.321 0-10.766 4.695-10.766 8.137v469.153c0 3.38 5.446 8.137 10.766 8.137h1087.785c5.070 0 5.446-6.197 5.446-8.137v-469.153zM1013.296 546.682c-30.86 0-56.023-25.101-56.023-56.023s25.101-56.023 56.023-56.023 56.023 25.101 56.023 56.023-25.101 56.023-56.023 56.023zM1013.296 461.364c-16.15 0-29.357 13.145-29.357 29.357 0 16.15 13.145 29.357 29.357 29.357 16.15 0 29.357-13.145 29.357-29.357 0-16.212-13.145-29.357-29.357-29.357z" horiz-adv-x="1189" />
<glyph unicode="&#x6b;" d="M1579.819 504.768h-507.53c-21.554 0-39.015 17.461-39.015 39.015s17.461 39.015 39.015 39.015h507.53c21.554 0 39.015-17.461 39.015-39.015s-17.461-39.015-39.015-39.015zM329.832 343.361h312.622l-153.471 440.277h-4.261l-154.891-440.277zM392.991 960h190.731l394.412-1024h-192.151l-96.076 271.101h-408.781l-96.076-271.101h-185.050l392.991 1024z" horiz-adv-x="1619" />
<glyph unicode="&#x6c;" d="M1579.819 504.768h-218.635v-218.635c0-21.554-17.461-39.015-39.015-39.015s-39.015 17.461-39.015 39.015v218.635h-210.782c-21.554 0-39.015 17.461-39.015 39.015s17.461 39.015 39.015 39.015h210.782v210.865c0 21.554 17.461 39.015 39.015 39.015s39.015-17.461 39.015-39.015v-210.782h218.635c21.554 0 39.015-17.461 39.015-39.015s-17.461-39.099-39.015-39.099zM329.832 343.361h312.622l-153.471 440.277h-4.261l-154.891-440.277zM392.991 960h190.731l394.412-1024h-192.151l-96.076 271.101h-408.781l-96.076-271.101h-185.050l392.991 1024z" horiz-adv-x="1619" />
<glyph unicode="&#x6f;" d="M978.816 493.184h-421.632v421.632c0 24.96-20.224 45.184-45.184 45.184-24.96 0-45.184-20.224-45.184-45.184v-421.632h-421.632c-24.96 0-45.184-20.224-45.184-45.184s20.224-45.184 45.184-45.184h421.632v-421.632c0-24.96 20.224-45.184 45.184-45.184s45.184 20.224 45.184 45.184v421.632h421.632c24.96 0 45.184 20.224 45.184 45.184s-20.224 45.184-45.184 45.184z" />
<glyph unicode="&#x70;" d="M676.641 445.041c81.353 48.225 136.055 136.661 136.055 238.096 0 152.922-123.94 276.863-276.863 276.863s-276.863-123.94-276.863-276.863c0-101.436 54.702-189.871 136.055-238.096-183.348-45.755-395.025-173.936-395.025-469.995 0-10.903 0.233 7.595 0.652-38.999h1070.361c0.419 46.594 0.652 28.143 0.652 38.999 0 296.059-211.677 424.24-395.025 469.995z" horiz-adv-x="1072" />
<glyph unicode="&#x71;" d="M554.71 492.333l-449.628 449.628c-24.051 24.051-62.992 24.051-87.043 0-24.051-24.051-24.051-62.992 0-87.043l406.966-406.966-406.966-406.87c-24.051-24.051-24.051-62.992 0-87.043 12.026-12.026 27.774-18.039 43.522-18.039 15.748 0 31.496 6.013 43.522 18.039l449.628 449.628c12.217 12.217 18.134 28.346 17.943 44.381 0.191 15.939-5.727 32.069-17.943 44.285z" horiz-adv-x="573" />
<glyph unicode="&#x72;" d="M0 448.048c-0.191-16.034 5.727-32.164 17.943-44.381l449.628-449.628c12.026-12.026 27.774-18.039 43.522-18.039s31.496 6.013 43.522 18.039c24.051 24.051 24.051 62.992 0 87.043l-406.966 406.87 406.966 406.966c24.051 24.051 24.051 62.992 0 87.043s-62.992 24.051-87.043 0l-449.628-449.628c-12.217-12.217-18.134-28.346-17.943-44.285z" horiz-adv-x="573" />
<glyph unicode="&#x73;" d="M554.71 492.333l-449.628 449.628c-24.051 24.051-62.992 24.051-87.043 0s-24.051-62.992 0-87.043l406.966-406.966-406.966-406.87c-24.051-24.051-24.051-62.992 0-87.043 12.026-12.026 27.774-18.039 43.522-18.039s31.496 6.013 43.522 18.039l449.628 449.628c12.217 12.217 18.134 28.346 17.943 44.381 0.191 15.939-5.727 32.069-17.943 44.285zM936.479 492.333l-449.628 449.628c-24.051 24.051-62.992 24.051-87.043 0s-24.051-62.992 0-87.043l406.966-406.966-406.966-406.87c-24.051-24.051-24.051-62.992 0-87.043 12.026-12.026 27.774-18.039 43.522-18.039s31.496 6.013 43.522 18.039l449.628 449.628c12.217 12.217 18.134 28.346 17.943 44.381 0.191 15.939-5.727 32.069-17.943 44.285z" horiz-adv-x="954" />
<glyph unicode="&#x74;" d="M10.991 475.576l473.346 473.346c14.77 14.77 38.675 14.77 53.446 0 14.77-14.749 14.77-38.697 0-53.446l-447.498-447.476 447.498-447.498c14.77-14.749 14.77-38.697 0-53.446-7.385-7.385-17.059-11.078-26.712-11.078s-19.348 3.693-26.712 11.078l-473.346 473.346c-7.623 7.623-11.229 17.643-11.013 27.597-0.216 9.955 3.39 19.996 10.991 27.576z" horiz-adv-x="549" />
<glyph unicode="&#x75;" d="M836.267 927.744l-804.011-804.011c-43.008-43.008-43.008-112.64 0-155.648s112.64-43.008 155.648 0l727.723 727.723 727.552-727.723c43.008-43.008 112.64-43.008 155.648 0 21.504 21.504 32.256 49.664 32.256 77.824s-10.752 56.32-32.256 77.824l-804.011 804.011c-21.845 21.845-50.688 32.427-79.36 32.085-28.501 0.341-57.344-10.24-79.189-32.085z" horiz-adv-x="1831" />
<glyph unicode="&#x77;" d="M537.87 475.576l-473.368 473.346c-14.77 14.77-38.675 14.77-53.446 0-14.77-14.749-14.77-38.697 0-53.446l447.52-447.476-447.498-447.498c-14.77-14.749-14.77-38.697 0-53.446 7.385-7.385 17.059-11.078 26.712-11.078s19.348 3.693 26.712 11.078l473.346 473.346c7.601 7.601 11.207 17.621 10.991 27.576 0.238 9.977-3.369 20.018-10.97 27.597z" horiz-adv-x="549" />
<glyph unicode="&#x78;" d="M568.042 567.040c18.854 0 38.455 11.433 59.042 35.046v-31.125h51.693v6.236h0.182v285.252h-51.711v-6.2h-0.164v-212.024c-11.396-16.046-22.209-24.014-32.475-24.014-6.947 0-10.995 4.103-12.126 12.107-0.62 1.678-0.62 7.986-0.62 20.112v210.019h-51.529v-6.2h-0.164v-225.609c0-20.112 1.75-33.769 4.595-42.412 5.142-14.423 16.648-21.188 33.277-21.188zM411.267 567.040c25.91 0 46.041 9.755 60.336 29.211 10.849 14.277 16.046 36.76 16.046 67.101v2.717c0.018 1.222 0.164 2.243 0.164 3.483v99.94c0 30.487-5.215 52.769-16.046 67.192-14.314 19.474-34.407 29.247-60.318 29.247-25.746 0-45.895-9.755-60.19-29.247-10.995-14.423-16.192-36.723-16.192-67.192v-3.136c-0.018-1.076-0.146-1.987-0.146-3.082v-99.904c0-30.341 5.197-52.805 16.192-67.101 14.295-19.474 34.407-29.229 60.154-29.229zM411.267 813.162c16.666 0 24.689-13.183 24.689-39.568v-117.281c-0.711-23.959-8.625-36.103-24.506-36.103-16.684 0-24.671 13.22-24.671 39.604v117.354c0.711 23.905 8.625 35.994 24.488 35.994zM173.113 847.15c18.398-53.425 29.849-93.668 35.046-121.128v-155.061h57.346v6.236h0.146v149.3l68.815 227.304h-1.75l1.878 6.2h-57.966l-39.075-150.321-40.716 150.321h-60.318c0.693-2.060 1.422-4.139 2.133-6.2h-2.279c12.089-35.501 24.652-71.149 36.741-106.65zM831.76 431.070c-10.339 44.983-47.171 78.169-91.48 83.129-104.973 11.743-211.204 11.779-316.961 11.743-105.775 0.036-212.006 0-316.961-11.743-44.327-4.941-81.123-38.145-91.461-83.129-14.733-64.129-14.897-134.074-14.897-200.099 0-65.989 0-135.971 14.751-200.081 10.339-45.020 47.135-78.205 91.461-83.147 104.955-11.724 211.186-11.779 316.961-11.724 105.757-0.073 211.988 0 316.961 11.724 44.308 4.941 81.141 38.145 91.48 83.147 14.751 64.111 14.842 134.092 14.842 200.081-0.018 66.025 0.055 135.971-14.697 200.099zM241.417 373.378h-61.266v-325.549h-56.89v325.549h-60.172v53.353h178.328v-53.353zM395.987 47.847h-51.201v30.797c-20.313-23.321-39.641-34.681-58.44-34.681-16.483 0-27.843 6.692-32.967 21.006-2.808 8.552-4.504 22.008-4.504 41.956v223.22h51.128v-207.83c0-11.961 0-18.234 0.474-19.875 1.222-7.95 5.124-11.961 11.961-11.961 10.247 0 20.987 7.914 32.329 23.923v215.744h51.201v-282.298zM590.287 132.562c0-26.111-1.75-44.91-5.142-56.872-6.838-21.006-20.513-31.727-40.899-31.727-18.179 0-35.757 10.12-52.824 31.271v-27.387h-51.164v378.883h51.164v-123.754c16.502 20.331 34.025 30.633 52.824 30.633 20.386 0 34.061-10.722 40.899-31.873 3.41-11.36 5.142-30.013 5.142-56.726v-112.449zM783.348 179.678h-102.274v-50.034c0-26.147 8.552-39.167 26.111-39.167 12.581 0 19.948 6.838 22.865 20.513 0.456 2.772 1.112 14.131 1.112 34.644h52.204v-7.476c0-16.447-0.62-27.807-1.094-32.949-1.732-11.323-5.744-21.589-11.943-30.669-14.168-20.477-35.155-30.597-61.868-30.597-26.786 0-47.135 9.646-61.904 28.919-10.867 14.095-16.429 36.395-16.429 66.39v98.901c0 30.159 4.923 52.204 15.809 66.499 14.769 19.328 35.155 28.956 61.248 28.956 25.655 0 46.022-9.609 60.354-28.956 10.703-14.277 15.827-36.322 15.827-66.499v-58.476zM706.711 287.55c-17.103 0-25.637-13.074-25.637-39.167v-26.111h51.146v26.111c-0.018 26.093-8.588 39.167-25.509 39.167zM516.896 287.55c-8.406 0-16.939-4.030-25.473-12.436v-172.092c8.552-8.552 17.067-12.563 25.473-12.563 14.769 0 22.264 12.563 22.264 38.072v120.472c-0.018 25.473-7.512 38.547-22.264 38.547z" horiz-adv-x="846" />
<glyph unicode="&#x79;" d="M1825.381 960c48.406 0 59.864-78.338 25.723-112.479l-853.762-878.783c-34.141-34.141-90.030-46.769-124.171-12.628l-853.528 897.725c-34.141 34.141-22.683 106.165 25.723 106.165h1780.015z" horiz-adv-x="1871" />
<glyph unicode="&#x7a;" d="M311.392 427.041h47.906v-41.918h-47.906v41.918zM838.363 468.959v47.906h-89.825v-47.906h89.825zM532.959 211.462v-89.825h41.918v89.825h-41.918zM664.702 295.298h-41.918v-41.918h41.918v41.918zM443.135 163.556v-83.836h47.906v83.836h-47.906zM443.135 690.526h47.906v41.918h-47.906v-41.918zM270.3 253.38h41.092v-221.567h-215.579v221.567h174.487zM269.474 211.462h-131.743v-131.743h131.743v131.743zM443.135 600.702h47.906v47.906h-47.906v-47.906zM139.108 648.608h-43.295v215.579h215.579v-215.579h-172.284zM137.731 690.526h131.743v131.743h-131.743v-131.743zM401.216 427.041v41.918h-41.918v-41.918h41.918zM532.959 600.702h41.918v89.825h-41.918v-89.825zM796.444 385.123h41.918v41.918h-41.918v-41.918zM880.281 385.123h47.906v41.918h-47.906v-41.918zM882.526 864.187h45.661v-215.579h-221.567v215.579h175.906zM880.281 822.269h-131.743v-131.743h131.743v131.743zM796.444 31.813h41.918v47.906h-41.918v-47.906zM532.959 253.38h41.918v41.918h-41.918v-41.918zM664.702 79.719h83.836v41.918h-41.918v89.825h-83.836v-89.825h41.918v-41.918zM1018.012 927.537v-959.069c0-17.929-14.534-32.463-32.463-32.463h-953.087c-17.929-0.006-32.463 14.528-32.463 32.457v959.075c0 17.929 14.534 32.463 32.463 32.463h953.081c17.935 0 32.469-14.534 32.469-32.463zM53.895 600.702h305.404v305.404h-305.404v-305.404zM359.298 295.298h-305.404v-305.404h305.404v305.404zM574.877 31.813h-41.918v-41.918h41.918v41.918zM970.105 558.784h-41.918v-89.825h-47.906v89.825h-215.579v-41.918h41.918v-47.906h41.918v-41.918h-41.918v-41.918h41.918v-47.906h47.906v-41.918h41.918v-41.918h-41.918v-41.918h41.918v-89.825h-89.825v89.825h-41.918v41.918h41.918v41.918h-41.918v41.918h-41.918v47.906h-41.918v-47.906h-47.906v47.906h-41.918v-47.906h-131.743v47.906h89.825v41.918h83.836v41.918h47.906v-41.918h41.918v41.918h-41.918v311.392h-47.906v-47.906h-41.918v47.906h-41.918v41.918h83.836v83.836h-83.836v-41.918h-47.906v-41.918h-41.918v-263.485h89.825v-41.918h41.918v41.918h41.918v-89.825h-83.836v-41.918h-47.906v89.825h-83.836v41.918h-221.567v-41.918h-41.918v41.918h-41.918v-89.825h41.918v-83.836h-41.918v-47.906h83.836v47.906h47.906v-47.906h41.918v47.906h-41.918v131.743h173.661v-47.906h-131.743v-41.918h41.918v-89.825h131.743v-41.918h41.918v-41.918h-41.918v-173.661h41.918v-47.906h-41.918v-41.918h89.825v89.825h83.836v41.918h47.906v-131.743h41.918v41.918h83.836v-41.918h131.743v41.918h89.825v526.971zM970.105 906.105h-305.404v-305.404h305.404v305.404zM880.281 337.216v-257.497h47.906v257.497h-47.906z" horiz-adv-x="1018" />
</font>
</defs>
</svg>
